<?xml version="1.0" encoding="UTF-8" standalone="no"?>
<!DOCTYPE svg PUBLIC "-//W3C//DTD SVG 1.1//EN"
 "http://www.w3.org/Graphics/SVG/1.1/DTD/svg11.dtd">
<!-- Generated by graphviz version 2.50.0 (0)
 -->
<!-- Pages: 1 -->
<svg width="288pt" height="344pt"
 viewBox="0.00 0.00 287.98 343.86" xmlns="http://www.w3.org/2000/svg" xmlns:xlink="http://www.w3.org/1999/xlink">
<g id="graph0" class="graph" transform="scale(1 1) rotate(0) translate(4 339.86)">
<polygon fill="white" stroke="transparent" points="-4,4 -4,-339.86 283.98,-339.86 283.98,4 -4,4"/>
<g id="clust1" class="cluster">
<title>cluster1265</title>
<path fill="none" stroke="black" d="M20,-8C20,-8 142,-8 142,-8 148,-8 154,-14 154,-20 154,-20 154,-220.91 154,-220.91 154,-226.91 148,-232.91 142,-232.91 142,-232.91 20,-232.91 20,-232.91 14,-232.91 8,-226.91 8,-220.91 8,-220.91 8,-20 8,-20 8,-14 14,-8 20,-8"/>
<text text-anchor="middle" x="132" y="-15.8" font-family="Times New Roman,serif" font-size="14.00">1265</text>
</g>
<!-- sigma_vol -->
<g id="node1" class="node">
<title>sigma_vol</title>
<ellipse fill="none" stroke="black" cx="81" cy="-298.38" rx="57.97" ry="37.45"/>
<text text-anchor="middle" x="81" y="-309.68" font-family="Times New Roman,serif" font-size="14.00">sigma_vol</text>
<text text-anchor="middle" x="81" y="-294.68" font-family="Times New Roman,serif" font-size="14.00">~</text>
<text text-anchor="middle" x="81" y="-279.68" font-family="Times New Roman,serif" font-size="14.00">HalfCauchy</text>
</g>
<!-- volatility -->
<g id="node4" class="node">
<title>volatility</title>
<ellipse fill="none" stroke="black" cx="81" cy="-187.43" rx="65.11" ry="37.45"/>
<text text-anchor="middle" x="81" y="-198.73" font-family="Times New Roman,serif" font-size="14.00">volatility</text>
<text text-anchor="middle" x="81" y="-183.73" font-family="Times New Roman,serif" font-size="14.00">~</text>
<text text-anchor="middle" x="81" y="-168.73" font-family="Times New Roman,serif" font-size="14.00">RandomWalk</text>
</g>
<!-- sigma_vol&#45;&gt;volatility -->
<g id="edge1" class="edge">
<title>sigma_vol&#45;&gt;volatility</title>
<path fill="none" stroke="black" d="M81,-260.8C81,-252.63 81,-243.85 81,-235.32"/>
<polygon fill="black" stroke="black" points="84.5,-235.1 81,-225.1 77.5,-235.1 84.5,-235.1"/>
</g>
<!-- nu -->
<g id="node2" class="node">
<title>nu</title>
<ellipse fill="none" stroke="black" cx="222" cy="-187.43" rx="57.97" ry="37.45"/>
<text text-anchor="middle" x="222" y="-198.73" font-family="Times New Roman,serif" font-size="14.00">nu</text>
<text text-anchor="middle" x="222" y="-183.73" font-family="Times New Roman,serif" font-size="14.00">~</text>
<text text-anchor="middle" x="222" y="-168.73" font-family="Times New Roman,serif" font-size="14.00">Exponential</text>
</g>
<!-- y -->
<g id="node3" class="node">
<title>y</title>
<ellipse fill="lightgrey" stroke="black" cx="90" cy="-76.48" rx="46.84" ry="37.45"/>
<text text-anchor="middle" x="90" y="-87.78" font-family="Times New Roman,serif" font-size="14.00">y</text>
<text text-anchor="middle" x="90" y="-72.78" font-family="Times New Roman,serif" font-size="14.00">~</text>
<text text-anchor="middle" x="90" y="-57.78" font-family="Times New Roman,serif" font-size="14.00">StudentT</text>
</g>
<!-- nu&#45;&gt;y -->
<g id="edge3" class="edge">
<title>nu&#45;&gt;y</title>
<path fill="none" stroke="black" d="M186.97,-157.52C169.49,-143.09 148.25,-125.56 130.11,-110.59"/>
<polygon fill="black" stroke="black" points="131.96,-107.57 122.02,-103.91 127.51,-112.97 131.96,-107.57"/>
</g>
<!-- volatility&#45;&gt;y -->
<g id="edge2" class="edge">
<title>volatility&#45;&gt;y</title>
<path fill="none" stroke="black" d="M84.02,-149.85C84.7,-141.67 85.42,-132.89 86.13,-124.37"/>
<polygon fill="black" stroke="black" points="89.64,-124.4 86.97,-114.15 82.66,-123.83 89.64,-124.4"/>
</g>
</g>
</svg>