<?xml version="1.0" encoding="UTF-8" standalone="no"?>
<!DOCTYPE svg PUBLIC "-//W3C//DTD SVG 1.1//EN"
 "http://www.w3.org/Graphics/SVG/1.1/DTD/svg11.dtd">
<!-- Generated by graphviz version 2.50.0 (0)
 -->
<!-- Pages: 1 -->
<svg width="458pt" height="344pt"
 viewBox="0.00 0.00 458.00 343.86" xmlns="http://www.w3.org/2000/svg" xmlns:xlink="http://www.w3.org/1999/xlink">
<g id="graph0" class="graph" transform="scale(1 1) rotate(0) translate(4 339.86)">
<polygon fill="white" stroke="transparent" points="-4,4 -4,-339.86 454,-339.86 454,4 -4,4"/>
<g id="clust1" class="cluster">
<title>cluster1262</title>
<path fill="none" stroke="black" d="M20,-8C20,-8 430,-8 430,-8 436,-8 442,-14 442,-20 442,-20 442,-220.91 442,-220.91 442,-226.91 436,-232.91 430,-232.91 430,-232.91 20,-232.91 20,-232.91 14,-232.91 8,-226.91 8,-220.91 8,-220.91 8,-20 8,-20 8,-14 14,-8 20,-8"/>
<text text-anchor="middle" x="420" y="-15.8" font-family="Times New Roman,serif" font-size="14.00">1262</text>
</g>
<!-- pi -->
<g id="node1" class="node">
<title>pi</title>
<ellipse fill="none" stroke="black" cx="92" cy="-298.38" rx="28.98" ry="37.45"/>
<text text-anchor="middle" x="92" y="-309.68" font-family="Times New Roman,serif" font-size="14.00">pi</text>
<text text-anchor="middle" x="92" y="-294.68" font-family="Times New Roman,serif" font-size="14.00">~</text>
<text text-anchor="middle" x="92" y="-279.68" font-family="Times New Roman,serif" font-size="14.00">Beta</text>
</g>
<!-- jump occurrence -->
<g id="node3" class="node">
<title>jump occurrence</title>
<ellipse fill="none" stroke="black" cx="92" cy="-187.43" rx="76.24" ry="37.45"/>
<text text-anchor="middle" x="92" y="-198.73" font-family="Times New Roman,serif" font-size="14.00">jump occurrence</text>
<text text-anchor="middle" x="92" y="-183.73" font-family="Times New Roman,serif" font-size="14.00">~</text>
<text text-anchor="middle" x="92" y="-168.73" font-family="Times New Roman,serif" font-size="14.00">Binomial</text>
</g>
<!-- pi&#45;&gt;jump occurrence -->
<g id="edge2" class="edge">
<title>pi&#45;&gt;jump occurrence</title>
<path fill="none" stroke="black" d="M92,-260.8C92,-252.63 92,-243.85 92,-235.32"/>
<polygon fill="black" stroke="black" points="95.5,-235.1 92,-225.1 88.5,-235.1 95.5,-235.1"/>
</g>
<!-- sigma_vol -->
<g id="node2" class="node">
<title>sigma_vol</title>
<ellipse fill="none" stroke="black" cx="369" cy="-298.38" rx="57.97" ry="37.45"/>
<text text-anchor="middle" x="369" y="-309.68" font-family="Times New Roman,serif" font-size="14.00">sigma_vol</text>
<text text-anchor="middle" x="369" y="-294.68" font-family="Times New Roman,serif" font-size="14.00">~</text>
<text text-anchor="middle" x="369" y="-279.68" font-family="Times New Roman,serif" font-size="14.00">HalfCauchy</text>
</g>
<!-- volatility -->
<g id="node5" class="node">
<title>volatility</title>
<ellipse fill="none" stroke="black" cx="369" cy="-187.43" rx="65.11" ry="37.45"/>
<text text-anchor="middle" x="369" y="-198.73" font-family="Times New Roman,serif" font-size="14.00">volatility</text>
<text text-anchor="middle" x="369" y="-183.73" font-family="Times New Roman,serif" font-size="14.00">~</text>
<text text-anchor="middle" x="369" y="-168.73" font-family="Times New Roman,serif" font-size="14.00">RandomWalk</text>
</g>
<!-- sigma_vol&#45;&gt;volatility -->
<g id="edge1" class="edge">
<title>sigma_vol&#45;&gt;volatility</title>
<path fill="none" stroke="black" d="M369,-260.8C369,-252.63 369,-243.85 369,-235.32"/>
<polygon fill="black" stroke="black" points="372.5,-235.1 369,-225.1 365.5,-235.1 372.5,-235.1"/>
</g>
<!-- y -->
<g id="node6" class="node">
<title>y</title>
<ellipse fill="lightgrey" stroke="black" cx="236" cy="-76.48" rx="41.94" ry="37.45"/>
<text text-anchor="middle" x="236" y="-87.78" font-family="Times New Roman,serif" font-size="14.00">y</text>
<text text-anchor="middle" x="236" y="-72.78" font-family="Times New Roman,serif" font-size="14.00">~</text>
<text text-anchor="middle" x="236" y="-57.78" font-family="Times New Roman,serif" font-size="14.00">Normal</text>
</g>
<!-- jump occurrence&#45;&gt;y -->
<g id="edge3" class="edge">
<title>jump occurrence&#45;&gt;y</title>
<path fill="none" stroke="black" d="M132.88,-155.5C152.81,-140.42 176.69,-122.35 196.45,-107.4"/>
<polygon fill="black" stroke="black" points="198.77,-110.03 204.64,-101.21 194.55,-104.45 198.77,-110.03"/>
</g>
<!-- jump size -->
<g id="node4" class="node">
<title>jump size</title>
<ellipse fill="none" stroke="black" cx="236" cy="-187.43" rx="49.49" ry="37.45"/>
<text text-anchor="middle" x="236" y="-198.73" font-family="Times New Roman,serif" font-size="14.00">jump size</text>
<text text-anchor="middle" x="236" y="-183.73" font-family="Times New Roman,serif" font-size="14.00">~</text>
<text text-anchor="middle" x="236" y="-168.73" font-family="Times New Roman,serif" font-size="14.00">Gamma</text>
</g>
<!-- jump size&#45;&gt;y -->
<g id="edge4" class="edge">
<title>jump size&#45;&gt;y</title>
<path fill="none" stroke="black" d="M236,-149.85C236,-141.67 236,-132.89 236,-124.37"/>
<polygon fill="black" stroke="black" points="239.5,-124.15 236,-114.15 232.5,-124.15 239.5,-124.15"/>
</g>
<!-- volatility&#45;&gt;y -->
<g id="edge5" class="edge">
<title>volatility&#45;&gt;y</title>
<path fill="none" stroke="black" d="M332.31,-156.37C314.3,-141.62 292.62,-123.86 274.4,-108.93"/>
<polygon fill="black" stroke="black" points="276.25,-105.92 266.29,-102.29 271.81,-111.34 276.25,-105.92"/>
</g>
</g>
</svg>