<?xml version="1.0" encoding="UTF-8" standalone="no"?>
<!DOCTYPE svg PUBLIC "-//W3C//DTD SVG 1.1//EN"
 "http://www.w3.org/Graphics/SVG/1.1/DTD/svg11.dtd">
<!-- Generated by graphviz version 2.50.0 (0)
 -->
<!-- Pages: 1 -->
<svg width="502pt" height="466pt"
 viewBox="0.00 0.00 501.97 465.81" xmlns="http://www.w3.org/2000/svg" xmlns:xlink="http://www.w3.org/1999/xlink">
<g id="graph0" class="graph" transform="scale(1 1) rotate(0) translate(4 461.81)">
<polygon fill="white" stroke="transparent" points="-4,4 -4,-461.81 497.97,-461.81 497.97,4 -4,4"/>
<g id="clust1" class="cluster">
<title>clusterfactor (14)</title>
<path fill="none" stroke="black" d="M247.98,-129.95C247.98,-129.95 357.98,-129.95 357.98,-129.95 363.98,-129.95 369.98,-135.95 369.98,-141.95 369.98,-141.95 369.98,-342.86 369.98,-342.86 369.98,-348.86 363.98,-354.86 357.98,-354.86 357.98,-354.86 247.98,-354.86 247.98,-354.86 241.98,-354.86 235.98,-348.86 235.98,-342.86 235.98,-342.86 235.98,-141.95 235.98,-141.95 235.98,-135.95 241.98,-129.95 247.98,-129.95"/>
<text text-anchor="middle" x="332.98" y="-137.75" font-family="Times New Roman,serif" font-size="14.00">factor (14)</text>
</g>
<g id="clust2" class="cluster">
<title>cluster653 x 1</title>
<path fill="none" stroke="black" d="M133.98,-8C133.98,-8 225.98,-8 225.98,-8 231.98,-8 237.98,-14 237.98,-20 237.98,-20 237.98,-109.95 237.98,-109.95 237.98,-115.95 231.98,-121.95 225.98,-121.95 225.98,-121.95 133.98,-121.95 133.98,-121.95 127.98,-121.95 121.98,-115.95 121.98,-109.95 121.98,-109.95 121.98,-20 121.98,-20 121.98,-14 127.98,-8 133.98,-8"/>
<text text-anchor="middle" x="208.98" y="-15.8" font-family="Times New Roman,serif" font-size="14.00">653 x 1</text>
</g>
<!-- sigma_obs -->
<g id="node1" class="node">
<title>sigma_obs</title>
<ellipse fill="none" stroke="black" cx="57.98" cy="-198.43" rx="57.97" ry="37.45"/>
<text text-anchor="middle" x="57.98" y="-209.73" font-family="Times New Roman,serif" font-size="14.00">sigma_obs</text>
<text text-anchor="middle" x="57.98" y="-194.73" font-family="Times New Roman,serif" font-size="14.00">~</text>
<text text-anchor="middle" x="57.98" y="-179.73" font-family="Times New Roman,serif" font-size="14.00">HalfCauchy</text>
</g>
<!-- likelihood -->
<g id="node7" class="node">
<title>likelihood</title>
<ellipse fill="lightgrey" stroke="black" cx="179.98" cy="-76.48" rx="50.41" ry="37.45"/>
<text text-anchor="middle" x="179.98" y="-87.78" font-family="Times New Roman,serif" font-size="14.00">likelihood</text>
<text text-anchor="middle" x="179.98" y="-72.78" font-family="Times New Roman,serif" font-size="14.00">~</text>
<text text-anchor="middle" x="179.98" y="-57.78" font-family="Times New Roman,serif" font-size="14.00">Normal</text>
</g>
<!-- sigma_obs&#45;&gt;likelihood -->
<g id="edge4" class="edge">
<title>sigma_obs&#45;&gt;likelihood</title>
<path fill="none" stroke="black" d="M88.49,-166.35C99.88,-154.85 112.96,-141.74 124.98,-129.95 130.36,-124.68 136.07,-119.15 141.71,-113.74"/>
<polygon fill="black" stroke="black" points="144.49,-115.92 149.3,-106.48 139.65,-110.86 144.49,-115.92"/>
</g>
<!-- Intercept -->
<g id="node2" class="node">
<title>Intercept</title>
<ellipse fill="none" stroke="black" cx="179.98" cy="-198.43" rx="45.92" ry="37.45"/>
<text text-anchor="middle" x="179.98" y="-209.73" font-family="Times New Roman,serif" font-size="14.00">Intercept</text>
<text text-anchor="middle" x="179.98" y="-194.73" font-family="Times New Roman,serif" font-size="14.00">~</text>
<text text-anchor="middle" x="179.98" y="-179.73" font-family="Times New Roman,serif" font-size="14.00">Normal</text>
</g>
<!-- Intercept&#45;&gt;likelihood -->
<g id="edge5" class="edge">
<title>Intercept&#45;&gt;likelihood</title>
<path fill="none" stroke="black" d="M179.98,-160.79C179.98,-149.38 179.98,-136.65 179.98,-124.63"/>
<polygon fill="black" stroke="black" points="183.48,-124.31 179.98,-114.31 176.48,-124.31 183.48,-124.31"/>
</g>
<!-- pi -->
<g id="node3" class="node">
<title>pi</title>
<ellipse fill="none" stroke="black" cx="302.98" cy="-420.34" rx="28.98" ry="37.45"/>
<text text-anchor="middle" x="302.98" y="-431.64" font-family="Times New Roman,serif" font-size="14.00">pi</text>
<text text-anchor="middle" x="302.98" y="-416.64" font-family="Times New Roman,serif" font-size="14.00">~</text>
<text text-anchor="middle" x="302.98" y="-401.64" font-family="Times New Roman,serif" font-size="14.00">Beta</text>
</g>
<!-- gamma -->
<g id="node5" class="node">
<title>gamma</title>
<ellipse fill="none" stroke="black" cx="302.98" cy="-309.38" rx="48.17" ry="37.45"/>
<text text-anchor="middle" x="302.98" y="-320.68" font-family="Times New Roman,serif" font-size="14.00">gamma</text>
<text text-anchor="middle" x="302.98" y="-305.68" font-family="Times New Roman,serif" font-size="14.00">~</text>
<text text-anchor="middle" x="302.98" y="-290.68" font-family="Times New Roman,serif" font-size="14.00">Bernoulli</text>
</g>
<!-- pi&#45;&gt;gamma -->
<g id="edge1" class="edge">
<title>pi&#45;&gt;gamma</title>
<path fill="none" stroke="black" d="M302.98,-382.75C302.98,-374.58 302.98,-365.8 302.98,-357.27"/>
<polygon fill="black" stroke="black" points="306.48,-357.06 302.98,-347.06 299.48,-357.06 306.48,-357.06"/>
</g>
<!-- sd_feature -->
<g id="node4" class="node">
<title>sd_feature</title>
<ellipse fill="none" stroke="black" cx="435.98" cy="-309.38" rx="57.97" ry="37.45"/>
<text text-anchor="middle" x="435.98" y="-320.68" font-family="Times New Roman,serif" font-size="14.00">sd_feature</text>
<text text-anchor="middle" x="435.98" y="-305.68" font-family="Times New Roman,serif" font-size="14.00">~</text>
<text text-anchor="middle" x="435.98" y="-290.68" font-family="Times New Roman,serif" font-size="14.00">HalfCauchy</text>
</g>
<!-- Coefficients -->
<g id="node6" class="node">
<title>Coefficients</title>
<ellipse fill="none" stroke="black" cx="302.98" cy="-198.43" rx="58.88" ry="37.45"/>
<text text-anchor="middle" x="302.98" y="-209.73" font-family="Times New Roman,serif" font-size="14.00">Coefficients</text>
<text text-anchor="middle" x="302.98" y="-194.73" font-family="Times New Roman,serif" font-size="14.00">~</text>
<text text-anchor="middle" x="302.98" y="-179.73" font-family="Times New Roman,serif" font-size="14.00">Normal</text>
</g>
<!-- sd_feature&#45;&gt;Coefficients -->
<g id="edge3" class="edge">
<title>sd_feature&#45;&gt;Coefficients</title>
<path fill="none" stroke="black" d="M400.69,-279.47C384.01,-265.8 363.93,-249.36 346.33,-234.94"/>
<polygon fill="black" stroke="black" points="348.39,-232.11 338.44,-228.48 343.96,-237.52 348.39,-232.11"/>
</g>
<!-- gamma&#45;&gt;Coefficients -->
<g id="edge2" class="edge">
<title>gamma&#45;&gt;Coefficients</title>
<path fill="none" stroke="black" d="M302.98,-271.8C302.98,-263.63 302.98,-254.85 302.98,-246.32"/>
<polygon fill="black" stroke="black" points="306.48,-246.1 302.98,-236.1 299.48,-246.1 306.48,-246.1"/>
</g>
<!-- Coefficients&#45;&gt;likelihood -->
<g id="edge6" class="edge">
<title>Coefficients&#45;&gt;likelihood</title>
<path fill="none" stroke="black" d="M271.97,-166.4C260.41,-154.9 247.14,-141.78 234.98,-129.95 229.59,-124.7 223.86,-119.18 218.22,-113.78"/>
<polygon fill="black" stroke="black" points="220.28,-110.9 210.63,-106.52 215.44,-115.96 220.28,-110.9"/>
</g>
</g>
</svg>