<?xml version="1.0" encoding="UTF-8" standalone="no"?>
<!DOCTYPE svg PUBLIC "-//W3C//DTD SVG 1.1//EN"
 "http://www.w3.org/Graphics/SVG/1.1/DTD/svg11.dtd">
<!-- Generated by graphviz version 2.50.0 (0)
 -->
<!-- Pages: 1 -->
<svg width="386pt" height="260pt"
 viewBox="0.00 0.00 385.98 259.91" xmlns="http://www.w3.org/2000/svg" xmlns:xlink="http://www.w3.org/1999/xlink">
<g id="graph0" class="graph" transform="scale(1 1) rotate(0) translate(4 255.91)">
<polygon fill="white" stroke="transparent" points="-4,4 -4,-255.91 381.98,-255.91 381.98,4 -4,4"/>
<g id="clust1" class="cluster">
<title>clusterfactor (14)</title>
<path fill="none" stroke="black" d="M247.98,-129.95C247.98,-129.95 357.98,-129.95 357.98,-129.95 363.98,-129.95 369.98,-135.95 369.98,-141.95 369.98,-141.95 369.98,-231.91 369.98,-231.91 369.98,-237.91 363.98,-243.91 357.98,-243.91 357.98,-243.91 247.98,-243.91 247.98,-243.91 241.98,-243.91 235.98,-237.91 235.98,-231.91 235.98,-231.91 235.98,-141.95 235.98,-141.95 235.98,-135.95 241.98,-129.95 247.98,-129.95"/>
<text text-anchor="middle" x="332.98" y="-137.75" font-family="Times New Roman,serif" font-size="14.00">factor (14)</text>
</g>
<g id="clust2" class="cluster">
<title>cluster653 x 1</title>
<path fill="none" stroke="black" d="M133.98,-8C133.98,-8 225.98,-8 225.98,-8 231.98,-8 237.98,-14 237.98,-20 237.98,-20 237.98,-109.95 237.98,-109.95 237.98,-115.95 231.98,-121.95 225.98,-121.95 225.98,-121.95 133.98,-121.95 133.98,-121.95 127.98,-121.95 121.98,-115.95 121.98,-109.95 121.98,-109.95 121.98,-20 121.98,-20 121.98,-14 127.98,-8 133.98,-8"/>
<text text-anchor="middle" x="208.98" y="-15.8" font-family="Times New Roman,serif" font-size="14.00">653 x 1</text>
</g>
<!-- sigma -->
<g id="node1" class="node">
<title>sigma</title>
<ellipse fill="none" stroke="black" cx="57.98" cy="-198.43" rx="57.97" ry="37.45"/>
<text text-anchor="middle" x="57.98" y="-209.73" font-family="Times New Roman,serif" font-size="14.00">sigma</text>
<text text-anchor="middle" x="57.98" y="-194.73" font-family="Times New Roman,serif" font-size="14.00">~</text>
<text text-anchor="middle" x="57.98" y="-179.73" font-family="Times New Roman,serif" font-size="14.00">HalfCauchy</text>
</g>
<!-- likelihood -->
<g id="node4" class="node">
<title>likelihood</title>
<ellipse fill="lightgrey" stroke="black" cx="179.98" cy="-76.48" rx="50.41" ry="37.45"/>
<text text-anchor="middle" x="179.98" y="-87.78" font-family="Times New Roman,serif" font-size="14.00">likelihood</text>
<text text-anchor="middle" x="179.98" y="-72.78" font-family="Times New Roman,serif" font-size="14.00">~</text>
<text text-anchor="middle" x="179.98" y="-57.78" font-family="Times New Roman,serif" font-size="14.00">Normal</text>
</g>
<!-- sigma&#45;&gt;likelihood -->
<g id="edge2" class="edge">
<title>sigma&#45;&gt;likelihood</title>
<path fill="none" stroke="black" d="M88.49,-166.35C99.88,-154.85 112.96,-141.74 124.98,-129.95 130.36,-124.68 136.07,-119.15 141.71,-113.74"/>
<polygon fill="black" stroke="black" points="144.49,-115.92 149.3,-106.48 139.65,-110.86 144.49,-115.92"/>
</g>
<!-- Intercept -->
<g id="node2" class="node">
<title>Intercept</title>
<ellipse fill="none" stroke="black" cx="179.98" cy="-198.43" rx="45.92" ry="37.45"/>
<text text-anchor="middle" x="179.98" y="-209.73" font-family="Times New Roman,serif" font-size="14.00">Intercept</text>
<text text-anchor="middle" x="179.98" y="-194.73" font-family="Times New Roman,serif" font-size="14.00">~</text>
<text text-anchor="middle" x="179.98" y="-179.73" font-family="Times New Roman,serif" font-size="14.00">Normal</text>
</g>
<!-- Intercept&#45;&gt;likelihood -->
<g id="edge1" class="edge">
<title>Intercept&#45;&gt;likelihood</title>
<path fill="none" stroke="black" d="M179.98,-160.79C179.98,-149.38 179.98,-136.65 179.98,-124.63"/>
<polygon fill="black" stroke="black" points="183.48,-124.31 179.98,-114.31 176.48,-124.31 183.48,-124.31"/>
</g>
<!-- Coefficients -->
<g id="node3" class="node">
<title>Coefficients</title>
<ellipse fill="none" stroke="black" cx="302.98" cy="-198.43" rx="58.88" ry="37.45"/>
<text text-anchor="middle" x="302.98" y="-209.73" font-family="Times New Roman,serif" font-size="14.00">Coefficients</text>
<text text-anchor="middle" x="302.98" y="-194.73" font-family="Times New Roman,serif" font-size="14.00">~</text>
<text text-anchor="middle" x="302.98" y="-179.73" font-family="Times New Roman,serif" font-size="14.00">Normal</text>
</g>
<!-- Coefficients&#45;&gt;likelihood -->
<g id="edge3" class="edge">
<title>Coefficients&#45;&gt;likelihood</title>
<path fill="none" stroke="black" d="M271.97,-166.4C260.41,-154.9 247.14,-141.78 234.98,-129.95 229.59,-124.7 223.86,-119.18 218.22,-113.78"/>
<polygon fill="black" stroke="black" points="220.28,-110.9 210.63,-106.52 215.44,-115.96 220.28,-110.9"/>
</g>
</g>
</svg>