<?xml version="1.0" encoding="UTF-8" standalone="no"?>
<!DOCTYPE svg PUBLIC "-//W3C//DTD SVG 1.1//EN"
 "http://www.w3.org/Graphics/SVG/1.1/DTD/svg11.dtd">
<!-- Generated by graphviz version 2.50.0 (0)
 -->
<!-- Pages: 1 -->
<svg width="502pt" height="466pt"
 viewBox="0.00 0.00 501.94 465.81" xmlns="http://www.w3.org/2000/svg" xmlns:xlink="http://www.w3.org/1999/xlink">
<g id="graph0" class="graph" transform="scale(1 1) rotate(0) translate(4 461.81)">
<polygon fill="white" stroke="transparent" points="-4,4 -4,-461.81 497.94,-461.81 497.94,4 -4,4"/>
<g id="clust1" class="cluster">
<title>clusterfactor (14)</title>
<path fill="none" stroke="black" d="M247.96,-129.95C247.96,-129.95 357.96,-129.95 357.96,-129.95 363.96,-129.95 369.96,-135.95 369.96,-141.95 369.96,-141.95 369.96,-342.86 369.96,-342.86 369.96,-348.86 363.96,-354.86 357.96,-354.86 357.96,-354.86 247.96,-354.86 247.96,-354.86 241.96,-354.86 235.96,-348.86 235.96,-342.86 235.96,-342.86 235.96,-141.95 235.96,-141.95 235.96,-135.95 241.96,-129.95 247.96,-129.95"/>
<text text-anchor="middle" x="332.96" y="-137.75" font-family="Times New Roman,serif" font-size="14.00">factor (14)</text>
</g>
<g id="clust2" class="cluster">
<title>cluster653 x 1</title>
<path fill="none" stroke="black" d="M121.96,-8C121.96,-8 213.96,-8 213.96,-8 219.96,-8 225.96,-14 225.96,-20 225.96,-20 225.96,-109.95 225.96,-109.95 225.96,-115.95 219.96,-121.95 213.96,-121.95 213.96,-121.95 121.96,-121.95 121.96,-121.95 115.96,-121.95 109.96,-115.95 109.96,-109.95 109.96,-109.95 109.96,-20 109.96,-20 109.96,-14 115.96,-8 121.96,-8"/>
<text text-anchor="middle" x="196.96" y="-15.8" font-family="Times New Roman,serif" font-size="14.00">653 x 1</text>
</g>
<!-- Intercept -->
<g id="node1" class="node">
<title>Intercept</title>
<ellipse fill="none" stroke="black" cx="45.96" cy="-198.43" rx="45.92" ry="37.45"/>
<text text-anchor="middle" x="45.96" y="-209.73" font-family="Times New Roman,serif" font-size="14.00">Intercept</text>
<text text-anchor="middle" x="45.96" y="-194.73" font-family="Times New Roman,serif" font-size="14.00">~</text>
<text text-anchor="middle" x="45.96" y="-179.73" font-family="Times New Roman,serif" font-size="14.00">Normal</text>
</g>
<!-- likelihood -->
<g id="node7" class="node">
<title>likelihood</title>
<ellipse fill="lightgrey" stroke="black" cx="167.96" cy="-76.48" rx="50.41" ry="37.45"/>
<text text-anchor="middle" x="167.96" y="-87.78" font-family="Times New Roman,serif" font-size="14.00">likelihood</text>
<text text-anchor="middle" x="167.96" y="-72.78" font-family="Times New Roman,serif" font-size="14.00">~</text>
<text text-anchor="middle" x="167.96" y="-57.78" font-family="Times New Roman,serif" font-size="14.00">Normal</text>
</g>
<!-- Intercept&#45;&gt;likelihood -->
<g id="edge4" class="edge">
<title>Intercept&#45;&gt;likelihood</title>
<path fill="none" stroke="black" d="M69.24,-165.95C78.56,-154.16 89.74,-140.96 100.96,-129.95 108.16,-122.89 116.28,-115.87 124.33,-109.36"/>
<polygon fill="black" stroke="black" points="126.64,-111.99 132.3,-103.04 122.29,-106.51 126.64,-111.99"/>
</g>
<!-- sd_feature -->
<g id="node2" class="node">
<title>sd_feature</title>
<ellipse fill="none" stroke="black" cx="435.96" cy="-309.38" rx="57.97" ry="37.45"/>
<text text-anchor="middle" x="435.96" y="-320.68" font-family="Times New Roman,serif" font-size="14.00">sd_feature</text>
<text text-anchor="middle" x="435.96" y="-305.68" font-family="Times New Roman,serif" font-size="14.00">~</text>
<text text-anchor="middle" x="435.96" y="-290.68" font-family="Times New Roman,serif" font-size="14.00">HalfCauchy</text>
</g>
<!-- Coefficients -->
<g id="node6" class="node">
<title>Coefficients</title>
<ellipse fill="none" stroke="black" cx="302.96" cy="-198.43" rx="58.88" ry="37.45"/>
<text text-anchor="middle" x="302.96" y="-209.73" font-family="Times New Roman,serif" font-size="14.00">Coefficients</text>
<text text-anchor="middle" x="302.96" y="-194.73" font-family="Times New Roman,serif" font-size="14.00">~</text>
<text text-anchor="middle" x="302.96" y="-179.73" font-family="Times New Roman,serif" font-size="14.00">Normal</text>
</g>
<!-- sd_feature&#45;&gt;Coefficients -->
<g id="edge2" class="edge">
<title>sd_feature&#45;&gt;Coefficients</title>
<path fill="none" stroke="black" d="M400.67,-279.47C383.99,-265.8 363.91,-249.36 346.31,-234.94"/>
<polygon fill="black" stroke="black" points="348.37,-232.11 338.42,-228.48 343.94,-237.52 348.37,-232.11"/>
</g>
<!-- pi -->
<g id="node3" class="node">
<title>pi</title>
<ellipse fill="none" stroke="black" cx="302.96" cy="-420.34" rx="28.98" ry="37.45"/>
<text text-anchor="middle" x="302.96" y="-431.64" font-family="Times New Roman,serif" font-size="14.00">pi</text>
<text text-anchor="middle" x="302.96" y="-416.64" font-family="Times New Roman,serif" font-size="14.00">~</text>
<text text-anchor="middle" x="302.96" y="-401.64" font-family="Times New Roman,serif" font-size="14.00">Beta</text>
</g>
<!-- gamma -->
<g id="node5" class="node">
<title>gamma</title>
<ellipse fill="none" stroke="black" cx="302.96" cy="-309.38" rx="48.17" ry="37.45"/>
<text text-anchor="middle" x="302.96" y="-320.68" font-family="Times New Roman,serif" font-size="14.00">gamma</text>
<text text-anchor="middle" x="302.96" y="-305.68" font-family="Times New Roman,serif" font-size="14.00">~</text>
<text text-anchor="middle" x="302.96" y="-290.68" font-family="Times New Roman,serif" font-size="14.00">Bernoulli</text>
</g>
<!-- pi&#45;&gt;gamma -->
<g id="edge1" class="edge">
<title>pi&#45;&gt;gamma</title>
<path fill="none" stroke="black" d="M302.96,-382.75C302.96,-374.58 302.96,-365.8 302.96,-357.27"/>
<polygon fill="black" stroke="black" points="306.46,-357.06 302.96,-347.06 299.46,-357.06 306.46,-357.06"/>
</g>
<!-- sigma_obs -->
<g id="node4" class="node">
<title>sigma_obs</title>
<ellipse fill="none" stroke="black" cx="167.96" cy="-198.43" rx="57.97" ry="37.45"/>
<text text-anchor="middle" x="167.96" y="-209.73" font-family="Times New Roman,serif" font-size="14.00">sigma_obs</text>
<text text-anchor="middle" x="167.96" y="-194.73" font-family="Times New Roman,serif" font-size="14.00">~</text>
<text text-anchor="middle" x="167.96" y="-179.73" font-family="Times New Roman,serif" font-size="14.00">HalfCauchy</text>
</g>
<!-- sigma_obs&#45;&gt;likelihood -->
<g id="edge5" class="edge">
<title>sigma_obs&#45;&gt;likelihood</title>
<path fill="none" stroke="black" d="M167.96,-160.79C167.96,-149.38 167.96,-136.65 167.96,-124.63"/>
<polygon fill="black" stroke="black" points="171.46,-124.31 167.96,-114.31 164.46,-124.31 171.46,-124.31"/>
</g>
<!-- gamma&#45;&gt;Coefficients -->
<g id="edge3" class="edge">
<title>gamma&#45;&gt;Coefficients</title>
<path fill="none" stroke="black" d="M302.96,-271.8C302.96,-263.63 302.96,-254.85 302.96,-246.32"/>
<polygon fill="black" stroke="black" points="306.46,-246.1 302.96,-236.1 299.46,-246.1 306.46,-246.1"/>
</g>
<!-- Coefficients&#45;&gt;likelihood -->
<g id="edge6" class="edge">
<title>Coefficients&#45;&gt;likelihood</title>
<path fill="none" stroke="black" d="M272.89,-166.08C261.32,-154.42 247.81,-141.29 234.96,-129.95 227.4,-123.28 219.11,-116.44 211.01,-109.99"/>
<polygon fill="black" stroke="black" points="213.04,-107.13 203.02,-103.69 208.71,-112.63 213.04,-107.13"/>
</g>
</g>
</svg>