<?xml version="1.0" encoding="UTF-8" standalone="no"?>
<!DOCTYPE svg PUBLIC "-//W3C//DTD SVG 1.1//EN"
 "http://www.w3.org/Graphics/SVG/1.1/DTD/svg11.dtd">
<!-- Generated by graphviz version 2.50.0 (0)
 -->
<!-- Pages: 1 -->
<svg width="458pt" height="360pt"
 viewBox="0.00 0.00 458.22 359.86" xmlns="http://www.w3.org/2000/svg" xmlns:xlink="http://www.w3.org/1999/xlink">
<g id="graph0" class="graph" transform="scale(1 1) rotate(0) translate(4 355.86)">
<polygon fill="white" stroke="transparent" points="-4,4 -4,-355.86 454.22,-355.86 454.22,4 -4,4"/>
<g id="clust1" class="cluster">
<title>cluster101</title>
<path fill="none" stroke="black" d="M116.08,-8C116.08,-8 210.08,-8 210.08,-8 216.08,-8 222.08,-14 222.08,-20 222.08,-20 222.08,-331.86 222.08,-331.86 222.08,-337.86 216.08,-343.86 210.08,-343.86 210.08,-343.86 116.08,-343.86 116.08,-343.86 110.08,-343.86 104.08,-337.86 104.08,-331.86 104.08,-331.86 104.08,-20 104.08,-20 104.08,-14 110.08,-8 116.08,-8"/>
<text text-anchor="middle" x="203.58" y="-15.8" font-family="Times New Roman,serif" font-size="14.00">101</text>
</g>
<!-- p -->
<g id="node1" class="node">
<title>p</title>
<ellipse fill="none" stroke="black" cx="48.08" cy="-187.43" rx="48.17" ry="37.45"/>
<text text-anchor="middle" x="48.08" y="-198.73" font-family="Times New Roman,serif" font-size="14.00">p</text>
<text text-anchor="middle" x="48.08" y="-183.73" font-family="Times New Roman,serif" font-size="14.00">~</text>
<text text-anchor="middle" x="48.08" y="-168.73" font-family="Times New Roman,serif" font-size="14.00">Binomial</text>
</g>
<!-- y -->
<g id="node4" class="node">
<title>y</title>
<ellipse fill="lightgrey" stroke="black" cx="169.08" cy="-76.48" rx="41.94" ry="37.45"/>
<text text-anchor="middle" x="169.08" y="-87.78" font-family="Times New Roman,serif" font-size="14.00">y</text>
<text text-anchor="middle" x="169.08" y="-72.78" font-family="Times New Roman,serif" font-size="14.00">~</text>
<text text-anchor="middle" x="169.08" y="-57.78" font-family="Times New Roman,serif" font-size="14.00">Normal</text>
</g>
<!-- p&#45;&gt;y -->
<g id="edge2" class="edge">
<title>p&#45;&gt;y</title>
<path fill="none" stroke="black" d="M78.93,-158.65C95.2,-144 115.28,-125.93 132.35,-110.55"/>
<polygon fill="black" stroke="black" points="134.87,-112.99 139.96,-103.7 130.19,-107.79 134.87,-112.99"/>
</g>
<!-- sigma -->
<g id="node2" class="node">
<title>sigma</title>
<ellipse fill="none" stroke="black" cx="288.08" cy="-187.43" rx="57.97" ry="37.45"/>
<text text-anchor="middle" x="288.08" y="-198.73" font-family="Times New Roman,serif" font-size="14.00">sigma</text>
<text text-anchor="middle" x="288.08" y="-183.73" font-family="Times New Roman,serif" font-size="14.00">~</text>
<text text-anchor="middle" x="288.08" y="-168.73" font-family="Times New Roman,serif" font-size="14.00">HalfCauchy</text>
</g>
<!-- sigma&#45;&gt;y -->
<g id="edge3" class="edge">
<title>sigma&#45;&gt;y</title>
<path fill="none" stroke="black" d="M255.25,-156.37C239.76,-142.19 221.23,-125.22 205.33,-110.66"/>
<polygon fill="black" stroke="black" points="207.5,-107.9 197.76,-103.73 202.77,-113.07 207.5,-107.9"/>
</g>
<!-- spread -->
<g id="node3" class="node">
<title>spread</title>
<ellipse fill="none" stroke="black" cx="407.08" cy="-187.43" rx="43.27" ry="37.45"/>
<text text-anchor="middle" x="407.08" y="-198.73" font-family="Times New Roman,serif" font-size="14.00">spread</text>
<text text-anchor="middle" x="407.08" y="-183.73" font-family="Times New Roman,serif" font-size="14.00">~</text>
<text text-anchor="middle" x="407.08" y="-168.73" font-family="Times New Roman,serif" font-size="14.00">Gamma</text>
</g>
<!-- spread&#45;&gt;y -->
<g id="edge4" class="edge">
<title>spread&#45;&gt;y</title>
<path fill="none" stroke="black" d="M375.12,-162.22C368.66,-157.85 361.79,-153.55 355.08,-149.95 310.63,-126.15 256.63,-105.99 218.28,-93.02"/>
<polygon fill="black" stroke="black" points="218.99,-89.57 208.4,-89.72 216.78,-96.21 218.99,-89.57"/>
</g>
<!-- f_rotated_ -->
<g id="node5" class="node">
<title>f_rotated_</title>
<ellipse fill="none" stroke="black" cx="163.08" cy="-298.38" rx="50.82" ry="37.45"/>
<text text-anchor="middle" x="163.08" y="-309.68" font-family="Times New Roman,serif" font-size="14.00">f_rotated_</text>
<text text-anchor="middle" x="163.08" y="-294.68" font-family="Times New Roman,serif" font-size="14.00">~</text>
<text text-anchor="middle" x="163.08" y="-279.68" font-family="Times New Roman,serif" font-size="14.00">Normal</text>
</g>
<!-- f -->
<g id="node6" class="node">
<title>f</title>
<polygon fill="none" stroke="black" points="210.58,-213.93 119.58,-213.93 119.58,-160.93 210.58,-160.93 210.58,-213.93"/>
<text text-anchor="middle" x="165.08" y="-198.73" font-family="Times New Roman,serif" font-size="14.00">f</text>
<text text-anchor="middle" x="165.08" y="-183.73" font-family="Times New Roman,serif" font-size="14.00">~</text>
<text text-anchor="middle" x="165.08" y="-168.73" font-family="Times New Roman,serif" font-size="14.00">Deterministic</text>
</g>
<!-- f_rotated_&#45;&gt;f -->
<g id="edge1" class="edge">
<title>f_rotated_&#45;&gt;f</title>
<path fill="none" stroke="black" d="M163.75,-260.8C163.97,-249.06 164.21,-236.08 164.42,-224.38"/>
<polygon fill="black" stroke="black" points="167.93,-224.14 164.61,-214.08 160.93,-224.02 167.93,-224.14"/>
</g>
<!-- f&#45;&gt;y -->
<g id="edge5" class="edge">
<title>f&#45;&gt;y</title>
<path fill="none" stroke="black" d="M166.02,-160.89C166.42,-149.98 166.9,-136.89 167.36,-124.35"/>
<polygon fill="black" stroke="black" points="170.87,-124.12 167.74,-114 163.88,-123.87 170.87,-124.12"/>
</g>
</g>
</svg>