<?xml version="1.0" encoding="UTF-8" standalone="no"?>
<!DOCTYPE svg PUBLIC "-//W3C//DTD SVG 1.1//EN"
 "http://www.w3.org/Graphics/SVG/1.1/DTD/svg11.dtd">
<!-- Generated by graphviz version 2.50.0 (0)
 -->
<!-- Pages: 1 -->
<svg width="288pt" height="344pt"
 viewBox="0.00 0.00 287.98 343.86" xmlns="http://www.w3.org/2000/svg" xmlns:xlink="http://www.w3.org/1999/xlink">
<g id="graph0" class="graph" transform="scale(1 1) rotate(0) translate(4 339.86)">
<polygon fill="white" stroke="transparent" points="-4,4 -4,-339.86 283.98,-339.86 283.98,4 -4,4"/>
<g id="clust1" class="cluster">
<title>cluster1262</title>
<path fill="none" stroke="black" d="M137.98,-8C137.98,-8 259.98,-8 259.98,-8 265.98,-8 271.98,-14 271.98,-20 271.98,-20 271.98,-220.91 271.98,-220.91 271.98,-226.91 265.98,-232.91 259.98,-232.91 259.98,-232.91 137.98,-232.91 137.98,-232.91 131.98,-232.91 125.98,-226.91 125.98,-220.91 125.98,-220.91 125.98,-20 125.98,-20 125.98,-14 131.98,-8 137.98,-8"/>
<text text-anchor="middle" x="249.98" y="-15.8" font-family="Times New Roman,serif" font-size="14.00">1262</text>
</g>
<!-- nu -->
<g id="node1" class="node">
<title>nu</title>
<ellipse fill="none" stroke="black" cx="57.98" cy="-187.43" rx="57.97" ry="37.45"/>
<text text-anchor="middle" x="57.98" y="-198.73" font-family="Times New Roman,serif" font-size="14.00">nu</text>
<text text-anchor="middle" x="57.98" y="-183.73" font-family="Times New Roman,serif" font-size="14.00">~</text>
<text text-anchor="middle" x="57.98" y="-168.73" font-family="Times New Roman,serif" font-size="14.00">Exponential</text>
</g>
<!-- y -->
<g id="node3" class="node">
<title>y</title>
<ellipse fill="lightgrey" stroke="black" cx="189.98" cy="-76.48" rx="46.84" ry="37.45"/>
<text text-anchor="middle" x="189.98" y="-87.78" font-family="Times New Roman,serif" font-size="14.00">y</text>
<text text-anchor="middle" x="189.98" y="-72.78" font-family="Times New Roman,serif" font-size="14.00">~</text>
<text text-anchor="middle" x="189.98" y="-57.78" font-family="Times New Roman,serif" font-size="14.00">StudentT</text>
</g>
<!-- nu&#45;&gt;y -->
<g id="edge2" class="edge">
<title>nu&#45;&gt;y</title>
<path fill="none" stroke="black" d="M93.01,-157.52C110.5,-143.09 131.73,-125.56 149.87,-110.59"/>
<polygon fill="black" stroke="black" points="152.48,-112.97 157.96,-103.91 148.02,-107.57 152.48,-112.97"/>
</g>
<!-- sigma_vol -->
<g id="node2" class="node">
<title>sigma_vol</title>
<ellipse fill="none" stroke="black" cx="198.98" cy="-298.38" rx="57.97" ry="37.45"/>
<text text-anchor="middle" x="198.98" y="-309.68" font-family="Times New Roman,serif" font-size="14.00">sigma_vol</text>
<text text-anchor="middle" x="198.98" y="-294.68" font-family="Times New Roman,serif" font-size="14.00">~</text>
<text text-anchor="middle" x="198.98" y="-279.68" font-family="Times New Roman,serif" font-size="14.00">HalfCauchy</text>
</g>
<!-- volatility -->
<g id="node4" class="node">
<title>volatility</title>
<ellipse fill="none" stroke="black" cx="198.98" cy="-187.43" rx="65.11" ry="37.45"/>
<text text-anchor="middle" x="198.98" y="-198.73" font-family="Times New Roman,serif" font-size="14.00">volatility</text>
<text text-anchor="middle" x="198.98" y="-183.73" font-family="Times New Roman,serif" font-size="14.00">~</text>
<text text-anchor="middle" x="198.98" y="-168.73" font-family="Times New Roman,serif" font-size="14.00">RandomWalk</text>
</g>
<!-- sigma_vol&#45;&gt;volatility -->
<g id="edge1" class="edge">
<title>sigma_vol&#45;&gt;volatility</title>
<path fill="none" stroke="black" d="M198.98,-260.8C198.98,-252.63 198.98,-243.85 198.98,-235.32"/>
<polygon fill="black" stroke="black" points="202.48,-235.1 198.98,-225.1 195.48,-235.1 202.48,-235.1"/>
</g>
<!-- volatility&#45;&gt;y -->
<g id="edge3" class="edge">
<title>volatility&#45;&gt;y</title>
<path fill="none" stroke="black" d="M195.96,-149.85C195.29,-141.67 194.56,-132.89 193.86,-124.37"/>
<polygon fill="black" stroke="black" points="197.32,-123.83 193.01,-114.15 190.35,-124.4 197.32,-123.83"/>
</g>
</g>
</svg>