<?xml version="1.0" encoding="UTF-8" standalone="no"?>
<!DOCTYPE svg PUBLIC "-//W3C//DTD SVG 1.1//EN"
 "http://www.w3.org/Graphics/SVG/1.1/DTD/svg11.dtd">
<!-- Generated by graphviz version 2.50.0 (0)
 -->
<!-- Pages: 1 -->
<svg width="223pt" height="371pt"
 viewBox="0.00 0.00 222.98 370.86" xmlns="http://www.w3.org/2000/svg" xmlns:xlink="http://www.w3.org/1999/xlink">
<g id="graph0" class="graph" transform="scale(1 1) rotate(0) translate(4 366.86)">
<polygon fill="white" stroke="transparent" points="-4,4 -4,-366.86 218.98,-366.86 218.98,4 -4,4"/>
<g id="clust1" class="cluster">
<title>cluster2</title>
<path fill="none" stroke="black" d="M27,-240.91C27,-240.91 77,-240.91 77,-240.91 83,-240.91 89,-246.91 89,-252.91 89,-252.91 89,-342.86 89,-342.86 89,-348.86 83,-354.86 77,-354.86 77,-354.86 27,-354.86 27,-354.86 21,-354.86 15,-348.86 15,-342.86 15,-342.86 15,-252.91 15,-252.91 15,-246.91 21,-240.91 27,-240.91"/>
<text text-anchor="middle" x="77.5" y="-248.71" font-family="Times New Roman,serif" font-size="14.00">2</text>
</g>
<g id="clust2" class="cluster">
<title>cluster1265</title>
<path fill="none" stroke="black" d="M20,-8C20,-8 158,-8 158,-8 164,-8 170,-14 170,-20 170,-20 170,-220.91 170,-220.91 170,-226.91 164,-232.91 158,-232.91 158,-232.91 20,-232.91 20,-232.91 14,-232.91 8,-226.91 8,-220.91 8,-220.91 8,-20 8,-20 8,-14 14,-8 20,-8"/>
<text text-anchor="middle" x="148" y="-15.8" font-family="Times New Roman,serif" font-size="14.00">1265</text>
</g>
<!-- phi -->
<g id="node1" class="node">
<title>phi</title>
<ellipse fill="none" stroke="black" cx="52" cy="-309.38" rx="28.98" ry="37.45"/>
<text text-anchor="middle" x="52" y="-320.68" font-family="Times New Roman,serif" font-size="14.00">phi</text>
<text text-anchor="middle" x="52" y="-305.68" font-family="Times New Roman,serif" font-size="14.00">~</text>
<text text-anchor="middle" x="52" y="-290.68" font-family="Times New Roman,serif" font-size="14.00">Beta</text>
</g>
<!-- volatility -->
<g id="node4" class="node">
<title>volatility</title>
<ellipse fill="none" stroke="black" cx="89" cy="-187.43" rx="72.66" ry="37.45"/>
<text text-anchor="middle" x="89" y="-198.73" font-family="Times New Roman,serif" font-size="14.00">volatility</text>
<text text-anchor="middle" x="89" y="-183.73" font-family="Times New Roman,serif" font-size="14.00">~</text>
<text text-anchor="middle" x="89" y="-168.73" font-family="Times New Roman,serif" font-size="14.00">AutoRegressive</text>
</g>
<!-- phi&#45;&gt;volatility -->
<g id="edge2" class="edge">
<title>phi&#45;&gt;volatility</title>
<path fill="none" stroke="black" d="M62.5,-274.33C66.32,-261.97 70.69,-247.78 74.77,-234.55"/>
<polygon fill="black" stroke="black" points="78.22,-235.25 77.82,-224.66 71.53,-233.19 78.22,-235.25"/>
</g>
<!-- sigma_vol -->
<g id="node2" class="node">
<title>sigma_vol</title>
<ellipse fill="none" stroke="black" cx="157" cy="-309.38" rx="57.97" ry="37.45"/>
<text text-anchor="middle" x="157" y="-320.68" font-family="Times New Roman,serif" font-size="14.00">sigma_vol</text>
<text text-anchor="middle" x="157" y="-305.68" font-family="Times New Roman,serif" font-size="14.00">~</text>
<text text-anchor="middle" x="157" y="-290.68" font-family="Times New Roman,serif" font-size="14.00">HalfCauchy</text>
</g>
<!-- sigma_vol&#45;&gt;volatility -->
<g id="edge1" class="edge">
<title>sigma_vol&#45;&gt;volatility</title>
<path fill="none" stroke="black" d="M137.51,-274.01C130.17,-261.06 121.72,-246.15 113.95,-232.44"/>
<polygon fill="black" stroke="black" points="116.94,-230.62 108.96,-223.64 110.85,-234.07 116.94,-230.62"/>
</g>
<!-- y -->
<g id="node3" class="node">
<title>y</title>
<ellipse fill="lightgrey" stroke="black" cx="89" cy="-76.48" rx="41.94" ry="37.45"/>
<text text-anchor="middle" x="89" y="-87.78" font-family="Times New Roman,serif" font-size="14.00">y</text>
<text text-anchor="middle" x="89" y="-72.78" font-family="Times New Roman,serif" font-size="14.00">~</text>
<text text-anchor="middle" x="89" y="-57.78" font-family="Times New Roman,serif" font-size="14.00">Normal</text>
</g>
<!-- volatility&#45;&gt;y -->
<g id="edge3" class="edge">
<title>volatility&#45;&gt;y</title>
<path fill="none" stroke="black" d="M89,-149.85C89,-141.67 89,-132.89 89,-124.37"/>
<polygon fill="black" stroke="black" points="92.5,-124.15 89,-114.15 85.5,-124.15 92.5,-124.15"/>
</g>
</g>
</svg>