<?xml version="1.0" encoding="UTF-8" standalone="no"?>
<!DOCTYPE svg PUBLIC "-//W3C//DTD SVG 1.1//EN"
 "http://www.w3.org/Graphics/SVG/1.1/DTD/svg11.dtd">
<!-- Generated by graphviz version 2.50.0 (0)
 -->
<!-- Pages: 1 -->
<svg width="258pt" height="360pt"
 viewBox="0.00 0.00 257.98 359.86" xmlns="http://www.w3.org/2000/svg" xmlns:xlink="http://www.w3.org/1999/xlink">
<g id="graph0" class="graph" transform="scale(1 1) rotate(0) translate(4 355.86)">
<polygon fill="white" stroke="transparent" points="-4,4 -4,-355.86 253.98,-355.86 253.98,4 -4,4"/>
<g id="clust1" class="cluster">
<title>cluster101</title>
<path fill="none" stroke="black" d="M20,-8C20,-8 114,-8 114,-8 120,-8 126,-14 126,-20 126,-20 126,-331.86 126,-331.86 126,-337.86 120,-343.86 114,-343.86 114,-343.86 20,-343.86 20,-343.86 14,-343.86 8,-337.86 8,-331.86 8,-331.86 8,-20 8,-20 8,-14 14,-8 20,-8"/>
<text text-anchor="middle" x="107.5" y="-15.8" font-family="Times New Roman,serif" font-size="14.00">101</text>
</g>
<!-- y -->
<g id="node1" class="node">
<title>y</title>
<ellipse fill="lightgrey" stroke="black" cx="73" cy="-76.48" rx="41.94" ry="37.45"/>
<text text-anchor="middle" x="73" y="-87.78" font-family="Times New Roman,serif" font-size="14.00">y</text>
<text text-anchor="middle" x="73" y="-72.78" font-family="Times New Roman,serif" font-size="14.00">~</text>
<text text-anchor="middle" x="73" y="-57.78" font-family="Times New Roman,serif" font-size="14.00">Normal</text>
</g>
<!-- f_rotated_ -->
<g id="node2" class="node">
<title>f_rotated_</title>
<ellipse fill="none" stroke="black" cx="67" cy="-298.38" rx="50.82" ry="37.45"/>
<text text-anchor="middle" x="67" y="-309.68" font-family="Times New Roman,serif" font-size="14.00">f_rotated_</text>
<text text-anchor="middle" x="67" y="-294.68" font-family="Times New Roman,serif" font-size="14.00">~</text>
<text text-anchor="middle" x="67" y="-279.68" font-family="Times New Roman,serif" font-size="14.00">Normal</text>
</g>
<!-- f -->
<g id="node3" class="node">
<title>f</title>
<polygon fill="none" stroke="black" points="114.5,-213.93 23.5,-213.93 23.5,-160.93 114.5,-160.93 114.5,-213.93"/>
<text text-anchor="middle" x="69" y="-198.73" font-family="Times New Roman,serif" font-size="14.00">f</text>
<text text-anchor="middle" x="69" y="-183.73" font-family="Times New Roman,serif" font-size="14.00">~</text>
<text text-anchor="middle" x="69" y="-168.73" font-family="Times New Roman,serif" font-size="14.00">Deterministic</text>
</g>
<!-- f_rotated_&#45;&gt;f -->
<g id="edge1" class="edge">
<title>f_rotated_&#45;&gt;f</title>
<path fill="none" stroke="black" d="M67.67,-260.8C67.89,-249.06 68.13,-236.08 68.34,-224.38"/>
<polygon fill="black" stroke="black" points="71.84,-224.14 68.53,-214.08 64.85,-224.02 71.84,-224.14"/>
</g>
<!-- f&#45;&gt;y -->
<g id="edge3" class="edge">
<title>f&#45;&gt;y</title>
<path fill="none" stroke="black" d="M69.94,-160.89C70.34,-149.98 70.82,-136.89 71.28,-124.35"/>
<polygon fill="black" stroke="black" points="74.79,-124.12 71.66,-114 67.79,-123.87 74.79,-124.12"/>
</g>
<!-- sigma -->
<g id="node4" class="node">
<title>sigma</title>
<ellipse fill="none" stroke="black" cx="192" cy="-187.43" rx="57.97" ry="37.45"/>
<text text-anchor="middle" x="192" y="-198.73" font-family="Times New Roman,serif" font-size="14.00">sigma</text>
<text text-anchor="middle" x="192" y="-183.73" font-family="Times New Roman,serif" font-size="14.00">~</text>
<text text-anchor="middle" x="192" y="-168.73" font-family="Times New Roman,serif" font-size="14.00">HalfCauchy</text>
</g>
<!-- sigma&#45;&gt;y -->
<g id="edge2" class="edge">
<title>sigma&#45;&gt;y</title>
<path fill="none" stroke="black" d="M159.17,-156.37C143.68,-142.19 125.15,-125.22 109.25,-110.66"/>
<polygon fill="black" stroke="black" points="111.42,-107.9 101.68,-103.73 106.69,-113.07 111.42,-107.9"/>
</g>
</g>
</svg>