<?xml version="1.0" encoding="UTF-8" standalone="no"?>
<!DOCTYPE svg PUBLIC "-//W3C//DTD SVG 1.1//EN"
 "http://www.w3.org/Graphics/SVG/1.1/DTD/svg11.dtd">
<!-- Generated by graphviz version 2.50.0 (0)
 -->
<!-- Pages: 1 -->
<svg width="600pt" height="360pt"
 viewBox="0.00 0.00 599.65 359.88" xmlns="http://www.w3.org/2000/svg" xmlns:xlink="http://www.w3.org/1999/xlink">
<g id="graph0" class="graph" transform="scale(1 1) rotate(0) translate(4 355.88)">
<polygon fill="white" stroke="transparent" points="-4,4 -4,-355.88 595.65,-355.88 595.65,4 -4,4"/>
<g id="clust1" class="cluster">
<title>clusterfactor (14)</title>
<path fill="none" stroke="black" d="M111.96,-129.95C111.96,-129.95 321.96,-129.95 321.96,-129.95 327.96,-129.95 333.96,-135.95 333.96,-141.95 333.96,-141.95 333.96,-331.88 333.96,-331.88 333.96,-337.88 327.96,-343.88 321.96,-343.88 321.96,-343.88 111.96,-343.88 111.96,-343.88 105.96,-343.88 99.96,-337.88 99.96,-331.88 99.96,-331.88 99.96,-141.95 99.96,-141.95 99.96,-135.95 105.96,-129.95 111.96,-129.95"/>
<text text-anchor="middle" x="296.96" y="-137.75" font-family="Times New Roman,serif" font-size="14.00">factor (14)</text>
</g>
<g id="clust2" class="cluster">
<title>cluster757 x 1</title>
<path fill="none" stroke="black" d="M231.96,-8C231.96,-8 323.96,-8 323.96,-8 329.96,-8 335.96,-14 335.96,-20 335.96,-20 335.96,-109.95 335.96,-109.95 335.96,-115.95 329.96,-121.95 323.96,-121.95 323.96,-121.95 231.96,-121.95 231.96,-121.95 225.96,-121.95 219.96,-115.95 219.96,-109.95 219.96,-109.95 219.96,-20 219.96,-20 219.96,-14 225.96,-8 231.96,-8"/>
<text text-anchor="middle" x="306.96" y="-15.8" font-family="Times New Roman,serif" font-size="14.00">757 x 1</text>
</g>
<!-- Intercept -->
<g id="node1" class="node">
<title>Intercept</title>
<ellipse fill="none" stroke="black" cx="45.96" cy="-187.45" rx="45.92" ry="37.45"/>
<text text-anchor="middle" x="45.96" y="-198.75" font-family="Times New Roman,serif" font-size="14.00">Intercept</text>
<text text-anchor="middle" x="45.96" y="-183.75" font-family="Times New Roman,serif" font-size="14.00">~</text>
<text text-anchor="middle" x="45.96" y="-168.75" font-family="Times New Roman,serif" font-size="14.00">Normal</text>
</g>
<!-- likelihood -->
<g id="node7" class="node">
<title>likelihood</title>
<ellipse fill="lightgrey" stroke="black" cx="277.96" cy="-76.48" rx="50.41" ry="37.45"/>
<text text-anchor="middle" x="277.96" y="-87.78" font-family="Times New Roman,serif" font-size="14.00">likelihood</text>
<text text-anchor="middle" x="277.96" y="-72.78" font-family="Times New Roman,serif" font-size="14.00">~</text>
<text text-anchor="middle" x="277.96" y="-57.78" font-family="Times New Roman,serif" font-size="14.00">Normal</text>
</g>
<!-- Intercept&#45;&gt;likelihood -->
<g id="edge6" class="edge">
<title>Intercept&#45;&gt;likelihood</title>
<path fill="none" stroke="black" d="M68.69,-154.53C76.45,-145.5 85.77,-136.39 95.96,-129.95 133.06,-106.51 180.94,-93.25 218.28,-85.92"/>
<polygon fill="black" stroke="black" points="219.32,-89.29 228.51,-84.01 218.04,-82.41 219.32,-89.29"/>
</g>
<!-- c_sq -->
<g id="node2" class="node">
<title>c_sq</title>
<ellipse fill="none" stroke="black" cx="399.96" cy="-298.41" rx="55.72" ry="37.45"/>
<text text-anchor="middle" x="399.96" y="-309.71" font-family="Times New Roman,serif" font-size="14.00">c_sq</text>
<text text-anchor="middle" x="399.96" y="-294.71" font-family="Times New Roman,serif" font-size="14.00">~</text>
<text text-anchor="middle" x="399.96" y="-279.71" font-family="Times New Roman,serif" font-size="14.00">InvGamma</text>
</g>
<!-- Coefficients -->
<g id="node4" class="node">
<title>Coefficients</title>
<polygon fill="none" stroke="black" points="325.46,-213.95 234.46,-213.95 234.46,-160.95 325.46,-160.95 325.46,-213.95"/>
<text text-anchor="middle" x="279.96" y="-198.75" font-family="Times New Roman,serif" font-size="14.00">Coefficients</text>
<text text-anchor="middle" x="279.96" y="-183.75" font-family="Times New Roman,serif" font-size="14.00">~</text>
<text text-anchor="middle" x="279.96" y="-168.75" font-family="Times New Roman,serif" font-size="14.00">Deterministic</text>
</g>
<!-- c_sq&#45;&gt;Coefficients -->
<g id="edge2" class="edge">
<title>c_sq&#45;&gt;Coefficients</title>
<path fill="none" stroke="black" d="M367.17,-267.63C351.31,-253.23 332.23,-235.91 315.96,-221.14"/>
<polygon fill="black" stroke="black" points="317.99,-218.25 308.23,-214.12 313.28,-223.43 317.99,-218.25"/>
</g>
<!-- tau -->
<g id="node3" class="node">
<title>tau</title>
<ellipse fill="none" stroke="black" cx="532.96" cy="-298.41" rx="58.88" ry="37.45"/>
<text text-anchor="middle" x="532.96" y="-309.71" font-family="Times New Roman,serif" font-size="14.00">tau</text>
<text text-anchor="middle" x="532.96" y="-294.71" font-family="Times New Roman,serif" font-size="14.00">~</text>
<text text-anchor="middle" x="532.96" y="-279.71" font-family="Times New Roman,serif" font-size="14.00">HalfNormal</text>
</g>
<!-- tau&#45;&gt;Coefficients -->
<g id="edge3" class="edge">
<title>tau&#45;&gt;Coefficients</title>
<path fill="none" stroke="black" d="M489.45,-273.08C481.4,-268.86 472.99,-264.64 464.96,-260.93 422.28,-241.2 372.59,-221.94 335.47,-208.23"/>
<polygon fill="black" stroke="black" points="336.43,-204.85 325.83,-204.69 334.01,-211.42 336.43,-204.85"/>
</g>
<!-- Coefficients&#45;&gt;likelihood -->
<g id="edge5" class="edge">
<title>Coefficients&#45;&gt;likelihood</title>
<path fill="none" stroke="black" d="M279.49,-160.9C279.29,-149.99 279.05,-136.9 278.82,-124.36"/>
<polygon fill="black" stroke="black" points="282.32,-123.94 278.63,-114.01 275.32,-124.07 282.32,-123.94"/>
</g>
<!-- z -->
<g id="node5" class="node">
<title>z</title>
<ellipse fill="none" stroke="black" cx="283.96" cy="-298.41" rx="41.94" ry="37.45"/>
<text text-anchor="middle" x="283.96" y="-309.71" font-family="Times New Roman,serif" font-size="14.00">z</text>
<text text-anchor="middle" x="283.96" y="-294.71" font-family="Times New Roman,serif" font-size="14.00">~</text>
<text text-anchor="middle" x="283.96" y="-279.71" font-family="Times New Roman,serif" font-size="14.00">Normal</text>
</g>
<!-- z&#45;&gt;Coefficients -->
<g id="edge1" class="edge">
<title>z&#45;&gt;Coefficients</title>
<path fill="none" stroke="black" d="M282.62,-260.82C282.19,-249.09 281.71,-236.1 281.28,-224.41"/>
<polygon fill="black" stroke="black" points="284.77,-223.97 280.9,-214.11 277.77,-224.23 284.77,-223.97"/>
</g>
<!-- lambda -->
<g id="node6" class="node">
<title>lambda</title>
<ellipse fill="none" stroke="black" cx="165.96" cy="-298.41" rx="57.97" ry="37.45"/>
<text text-anchor="middle" x="165.96" y="-309.71" font-family="Times New Roman,serif" font-size="14.00">lambda</text>
<text text-anchor="middle" x="165.96" y="-294.71" font-family="Times New Roman,serif" font-size="14.00">~</text>
<text text-anchor="middle" x="165.96" y="-279.71" font-family="Times New Roman,serif" font-size="14.00">HalfCauchy</text>
</g>
<!-- lambda&#45;&gt;Coefficients -->
<g id="edge4" class="edge">
<title>lambda&#45;&gt;Coefficients</title>
<path fill="none" stroke="black" d="M198.02,-266.77C212.83,-252.62 230.43,-235.79 245.52,-221.37"/>
<polygon fill="black" stroke="black" points="248.34,-223.52 253.15,-214.08 243.5,-218.46 248.34,-223.52"/>
</g>
</g>
</svg>