<?xml version="1.0" encoding="UTF-8" standalone="no"?>
<!DOCTYPE svg PUBLIC "-//W3C//DTD SVG 1.1//EN"
 "http://www.w3.org/Graphics/SVG/1.1/DTD/svg11.dtd">
<!-- Generated by graphviz version 2.50.0 (0)
 -->
<!-- Pages: 1 -->
<svg width="457pt" height="344pt"
 viewBox="0.00 0.00 457.00 343.86" xmlns="http://www.w3.org/2000/svg" xmlns:xlink="http://www.w3.org/1999/xlink">
<g id="graph0" class="graph" transform="scale(1 1) rotate(0) translate(4 339.86)">
<polygon fill="white" stroke="transparent" points="-4,4 -4,-339.86 453,-339.86 453,4 -4,4"/>
<g id="clust1" class="cluster">
<title>cluster1265</title>
<path fill="none" stroke="black" d="M20,-8C20,-8 429,-8 429,-8 435,-8 441,-14 441,-20 441,-20 441,-220.91 441,-220.91 441,-226.91 435,-232.91 429,-232.91 429,-232.91 20,-232.91 20,-232.91 14,-232.91 8,-226.91 8,-220.91 8,-220.91 8,-20 8,-20 8,-14 14,-8 20,-8"/>
<text text-anchor="middle" x="419" y="-15.8" font-family="Times New Roman,serif" font-size="14.00">1265</text>
</g>
<!-- sigma_vol -->
<g id="node1" class="node">
<title>sigma_vol</title>
<ellipse fill="none" stroke="black" cx="81" cy="-298.38" rx="57.97" ry="37.45"/>
<text text-anchor="middle" x="81" y="-309.68" font-family="Times New Roman,serif" font-size="14.00">sigma_vol</text>
<text text-anchor="middle" x="81" y="-294.68" font-family="Times New Roman,serif" font-size="14.00">~</text>
<text text-anchor="middle" x="81" y="-279.68" font-family="Times New Roman,serif" font-size="14.00">HalfCauchy</text>
</g>
<!-- volatility -->
<g id="node4" class="node">
<title>volatility</title>
<ellipse fill="none" stroke="black" cx="81" cy="-187.43" rx="65.11" ry="37.45"/>
<text text-anchor="middle" x="81" y="-198.73" font-family="Times New Roman,serif" font-size="14.00">volatility</text>
<text text-anchor="middle" x="81" y="-183.73" font-family="Times New Roman,serif" font-size="14.00">~</text>
<text text-anchor="middle" x="81" y="-168.73" font-family="Times New Roman,serif" font-size="14.00">RandomWalk</text>
</g>
<!-- sigma_vol&#45;&gt;volatility -->
<g id="edge1" class="edge">
<title>sigma_vol&#45;&gt;volatility</title>
<path fill="none" stroke="black" d="M81,-260.8C81,-252.63 81,-243.85 81,-235.32"/>
<polygon fill="black" stroke="black" points="84.5,-235.1 81,-225.1 77.5,-235.1 84.5,-235.1"/>
</g>
<!-- pi -->
<g id="node2" class="node">
<title>pi</title>
<ellipse fill="none" stroke="black" cx="240" cy="-298.38" rx="28.98" ry="37.45"/>
<text text-anchor="middle" x="240" y="-309.68" font-family="Times New Roman,serif" font-size="14.00">pi</text>
<text text-anchor="middle" x="240" y="-294.68" font-family="Times New Roman,serif" font-size="14.00">~</text>
<text text-anchor="middle" x="240" y="-279.68" font-family="Times New Roman,serif" font-size="14.00">Beta</text>
</g>
<!-- jump occurrence -->
<g id="node6" class="node">
<title>jump occurrence</title>
<ellipse fill="none" stroke="black" cx="240" cy="-187.43" rx="76.24" ry="37.45"/>
<text text-anchor="middle" x="240" y="-198.73" font-family="Times New Roman,serif" font-size="14.00">jump occurrence</text>
<text text-anchor="middle" x="240" y="-183.73" font-family="Times New Roman,serif" font-size="14.00">~</text>
<text text-anchor="middle" x="240" y="-168.73" font-family="Times New Roman,serif" font-size="14.00">Binomial</text>
</g>
<!-- pi&#45;&gt;jump occurrence -->
<g id="edge2" class="edge">
<title>pi&#45;&gt;jump occurrence</title>
<path fill="none" stroke="black" d="M240,-260.8C240,-252.63 240,-243.85 240,-235.32"/>
<polygon fill="black" stroke="black" points="243.5,-235.1 240,-225.1 236.5,-235.1 243.5,-235.1"/>
</g>
<!-- jump size -->
<g id="node3" class="node">
<title>jump size</title>
<ellipse fill="none" stroke="black" cx="384" cy="-187.43" rx="49.49" ry="37.45"/>
<text text-anchor="middle" x="384" y="-198.73" font-family="Times New Roman,serif" font-size="14.00">jump size</text>
<text text-anchor="middle" x="384" y="-183.73" font-family="Times New Roman,serif" font-size="14.00">~</text>
<text text-anchor="middle" x="384" y="-168.73" font-family="Times New Roman,serif" font-size="14.00">Gamma</text>
</g>
<!-- y -->
<g id="node5" class="node">
<title>y</title>
<ellipse fill="lightgrey" stroke="black" cx="240" cy="-76.48" rx="41.94" ry="37.45"/>
<text text-anchor="middle" x="240" y="-87.78" font-family="Times New Roman,serif" font-size="14.00">y</text>
<text text-anchor="middle" x="240" y="-72.78" font-family="Times New Roman,serif" font-size="14.00">~</text>
<text text-anchor="middle" x="240" y="-57.78" font-family="Times New Roman,serif" font-size="14.00">Normal</text>
</g>
<!-- jump size&#45;&gt;y -->
<g id="edge3" class="edge">
<title>jump size&#45;&gt;y</title>
<path fill="none" stroke="black" d="M349.51,-160.33C328.55,-144.48 301.72,-124.18 279.86,-107.64"/>
<polygon fill="black" stroke="black" points="281.84,-104.74 271.75,-101.5 277.61,-110.32 281.84,-104.74"/>
</g>
<!-- volatility&#45;&gt;y -->
<g id="edge4" class="edge">
<title>volatility&#45;&gt;y</title>
<path fill="none" stroke="black" d="M122.36,-158.09C145.96,-141.92 175.44,-121.72 198.98,-105.58"/>
<polygon fill="black" stroke="black" points="201.1,-108.38 207.37,-99.84 197.14,-102.6 201.1,-108.38"/>
</g>
<!-- jump occurrence&#45;&gt;y -->
<g id="edge5" class="edge">
<title>jump occurrence&#45;&gt;y</title>
<path fill="none" stroke="black" d="M240,-149.85C240,-141.67 240,-132.89 240,-124.37"/>
<polygon fill="black" stroke="black" points="243.5,-124.15 240,-114.15 236.5,-124.15 243.5,-124.15"/>
</g>
</g>
</svg>