<?xml version="1.0" encoding="UTF-8" standalone="no"?>
<!DOCTYPE svg PUBLIC "-//W3C//DTD SVG 1.1//EN"
 "http://www.w3.org/Graphics/SVG/1.1/DTD/svg11.dtd">
<!-- Generated by graphviz version 2.50.0 (0)
 -->
<!-- Pages: 1 -->
<svg width="603pt" height="360pt"
 viewBox="0.00 0.00 602.67 359.88" xmlns="http://www.w3.org/2000/svg" xmlns:xlink="http://www.w3.org/1999/xlink">
<g id="graph0" class="graph" transform="scale(1 1) rotate(0) translate(4 355.88)">
<polygon fill="white" stroke="transparent" points="-4,4 -4,-355.88 598.67,-355.88 598.67,4 -4,4"/>
<g id="clust1" class="cluster">
<title>clusterfactor (14)</title>
<path fill="none" stroke="black" d="M138.69,-129.95C138.69,-129.95 348.69,-129.95 348.69,-129.95 354.69,-129.95 360.69,-135.95 360.69,-141.95 360.69,-141.95 360.69,-331.88 360.69,-331.88 360.69,-337.88 354.69,-343.88 348.69,-343.88 348.69,-343.88 138.69,-343.88 138.69,-343.88 132.69,-343.88 126.69,-337.88 126.69,-331.88 126.69,-331.88 126.69,-141.95 126.69,-141.95 126.69,-135.95 132.69,-129.95 138.69,-129.95"/>
<text text-anchor="middle" x="323.69" y="-137.75" font-family="Times New Roman,serif" font-size="14.00">factor (14)</text>
</g>
<g id="clust2" class="cluster">
<title>cluster653 x 1</title>
<path fill="none" stroke="black" d="M368.69,-8C368.69,-8 460.69,-8 460.69,-8 466.69,-8 472.69,-14 472.69,-20 472.69,-20 472.69,-109.95 472.69,-109.95 472.69,-115.95 466.69,-121.95 460.69,-121.95 460.69,-121.95 368.69,-121.95 368.69,-121.95 362.69,-121.95 356.69,-115.95 356.69,-109.95 356.69,-109.95 356.69,-20 356.69,-20 356.69,-14 362.69,-8 368.69,-8"/>
<text text-anchor="middle" x="443.69" y="-15.8" font-family="Times New Roman,serif" font-size="14.00">653 x 1</text>
</g>
<!-- tau -->
<g id="node1" class="node">
<title>tau</title>
<ellipse fill="none" stroke="black" cx="58.69" cy="-298.41" rx="58.88" ry="37.45"/>
<text text-anchor="middle" x="58.69" y="-309.71" font-family="Times New Roman,serif" font-size="14.00">tau</text>
<text text-anchor="middle" x="58.69" y="-294.71" font-family="Times New Roman,serif" font-size="14.00">~</text>
<text text-anchor="middle" x="58.69" y="-279.71" font-family="Times New Roman,serif" font-size="14.00">HalfNormal</text>
</g>
<!-- Coefficients -->
<g id="node6" class="node">
<title>Coefficients</title>
<polygon fill="none" stroke="black" points="283.19,-213.95 192.19,-213.95 192.19,-160.95 283.19,-160.95 283.19,-213.95"/>
<text text-anchor="middle" x="237.69" y="-198.75" font-family="Times New Roman,serif" font-size="14.00">Coefficients</text>
<text text-anchor="middle" x="237.69" y="-183.75" font-family="Times New Roman,serif" font-size="14.00">~</text>
<text text-anchor="middle" x="237.69" y="-168.75" font-family="Times New Roman,serif" font-size="14.00">Deterministic</text>
</g>
<!-- tau&#45;&gt;Coefficients -->
<g id="edge1" class="edge">
<title>tau&#45;&gt;Coefficients</title>
<path fill="none" stroke="black" d="M100.66,-271.86C126.49,-256.14 159.75,-235.89 187.04,-219.28"/>
<polygon fill="black" stroke="black" points="188.95,-222.22 195.68,-214.03 185.31,-216.24 188.95,-222.22"/>
</g>
<!-- Intercept -->
<g id="node2" class="node">
<title>Intercept</title>
<ellipse fill="none" stroke="black" cx="414.69" cy="-187.45" rx="45.92" ry="37.45"/>
<text text-anchor="middle" x="414.69" y="-198.75" font-family="Times New Roman,serif" font-size="14.00">Intercept</text>
<text text-anchor="middle" x="414.69" y="-183.75" font-family="Times New Roman,serif" font-size="14.00">~</text>
<text text-anchor="middle" x="414.69" y="-168.75" font-family="Times New Roman,serif" font-size="14.00">Normal</text>
</g>
<!-- likelihood -->
<g id="node7" class="node">
<title>likelihood</title>
<ellipse fill="lightgrey" stroke="black" cx="414.69" cy="-76.48" rx="50.41" ry="37.45"/>
<text text-anchor="middle" x="414.69" y="-87.78" font-family="Times New Roman,serif" font-size="14.00">likelihood</text>
<text text-anchor="middle" x="414.69" y="-72.78" font-family="Times New Roman,serif" font-size="14.00">~</text>
<text text-anchor="middle" x="414.69" y="-57.78" font-family="Times New Roman,serif" font-size="14.00">Normal</text>
</g>
<!-- Intercept&#45;&gt;likelihood -->
<g id="edge5" class="edge">
<title>Intercept&#45;&gt;likelihood</title>
<path fill="none" stroke="black" d="M414.69,-149.86C414.69,-141.69 414.69,-132.9 414.69,-124.38"/>
<polygon fill="black" stroke="black" points="418.19,-124.16 414.69,-114.16 411.19,-124.16 418.19,-124.16"/>
</g>
<!-- sigma_obs -->
<g id="node3" class="node">
<title>sigma_obs</title>
<ellipse fill="none" stroke="black" cx="536.69" cy="-187.45" rx="57.97" ry="37.45"/>
<text text-anchor="middle" x="536.69" y="-198.75" font-family="Times New Roman,serif" font-size="14.00">sigma_obs</text>
<text text-anchor="middle" x="536.69" y="-183.75" font-family="Times New Roman,serif" font-size="14.00">~</text>
<text text-anchor="middle" x="536.69" y="-168.75" font-family="Times New Roman,serif" font-size="14.00">HalfCauchy</text>
</g>
<!-- sigma_obs&#45;&gt;likelihood -->
<g id="edge4" class="edge">
<title>sigma_obs&#45;&gt;likelihood</title>
<path fill="none" stroke="black" d="M503.35,-156.67C488.07,-143.03 469.86,-126.76 453.92,-112.52"/>
<polygon fill="black" stroke="black" points="456.1,-109.77 446.31,-105.72 451.43,-114.99 456.1,-109.77"/>
</g>
<!-- lambda -->
<g id="node4" class="node">
<title>lambda</title>
<ellipse fill="none" stroke="black" cx="294.69" cy="-298.41" rx="57.97" ry="37.45"/>
<text text-anchor="middle" x="294.69" y="-309.71" font-family="Times New Roman,serif" font-size="14.00">lambda</text>
<text text-anchor="middle" x="294.69" y="-294.71" font-family="Times New Roman,serif" font-size="14.00">~</text>
<text text-anchor="middle" x="294.69" y="-279.71" font-family="Times New Roman,serif" font-size="14.00">HalfCauchy</text>
</g>
<!-- lambda&#45;&gt;Coefficients -->
<g id="edge2" class="edge">
<title>lambda&#45;&gt;Coefficients</title>
<path fill="none" stroke="black" d="M276.5,-262.63C269.96,-250.13 262.58,-236.02 256.02,-223.49"/>
<polygon fill="black" stroke="black" points="258.93,-221.51 251.2,-214.27 252.73,-224.75 258.93,-221.51"/>
</g>
<!-- z -->
<g id="node5" class="node">
<title>z</title>
<ellipse fill="none" stroke="black" cx="176.69" cy="-298.41" rx="41.94" ry="37.45"/>
<text text-anchor="middle" x="176.69" y="-309.71" font-family="Times New Roman,serif" font-size="14.00">z</text>
<text text-anchor="middle" x="176.69" y="-294.71" font-family="Times New Roman,serif" font-size="14.00">~</text>
<text text-anchor="middle" x="176.69" y="-279.71" font-family="Times New Roman,serif" font-size="14.00">Normal</text>
</g>
<!-- z&#45;&gt;Coefficients -->
<g id="edge3" class="edge">
<title>z&#45;&gt;Coefficients</title>
<path fill="none" stroke="black" d="M194.99,-264.72C202.35,-251.58 210.84,-236.41 218.3,-223.08"/>
<polygon fill="black" stroke="black" points="221.44,-224.63 223.28,-214.2 215.34,-221.21 221.44,-224.63"/>
</g>
<!-- Coefficients&#45;&gt;likelihood -->
<g id="edge6" class="edge">
<title>Coefficients&#45;&gt;likelihood</title>
<path fill="none" stroke="black" d="M279.19,-160.9C305.74,-144.55 340.25,-123.31 367.79,-106.35"/>
<polygon fill="black" stroke="black" points="369.79,-109.23 376.47,-101.01 366.12,-103.27 369.79,-109.23"/>
</g>
</g>
</svg>