<?xml version="1.0" encoding="UTF-8" standalone="no"?>
<!DOCTYPE svg PUBLIC "-//W3C//DTD SVG 1.1//EN"
 "http://www.w3.org/Graphics/SVG/1.1/DTD/svg11.dtd">
<!-- Generated by graphviz version 2.50.0 (0)
 -->
<!-- Pages: 1 -->
<svg width="170pt" height="344pt"
 viewBox="0.00 0.00 170.00 343.86" xmlns="http://www.w3.org/2000/svg" xmlns:xlink="http://www.w3.org/1999/xlink">
<g id="graph0" class="graph" transform="scale(1 1) rotate(0) translate(4 339.86)">
<polygon fill="white" stroke="transparent" points="-4,4 -4,-339.86 166,-339.86 166,4 -4,4"/>
<g id="clust1" class="cluster">
<title>cluster1265</title>
<path fill="none" stroke="black" d="M20,-8C20,-8 142,-8 142,-8 148,-8 154,-14 154,-20 154,-20 154,-220.91 154,-220.91 154,-226.91 148,-232.91 142,-232.91 142,-232.91 20,-232.91 20,-232.91 14,-232.91 8,-226.91 8,-220.91 8,-220.91 8,-20 8,-20 8,-14 14,-8 20,-8"/>
<text text-anchor="middle" x="132" y="-15.8" font-family="Times New Roman,serif" font-size="14.00">1265</text>
</g>
<!-- sigma_vol -->
<g id="node1" class="node">
<title>sigma_vol</title>
<ellipse fill="none" stroke="black" cx="81" cy="-298.38" rx="57.97" ry="37.45"/>
<text text-anchor="middle" x="81" y="-309.68" font-family="Times New Roman,serif" font-size="14.00">sigma_vol</text>
<text text-anchor="middle" x="81" y="-294.68" font-family="Times New Roman,serif" font-size="14.00">~</text>
<text text-anchor="middle" x="81" y="-279.68" font-family="Times New Roman,serif" font-size="14.00">HalfCauchy</text>
</g>
<!-- volatility -->
<g id="node3" class="node">
<title>volatility</title>
<ellipse fill="none" stroke="black" cx="81" cy="-187.43" rx="65.11" ry="37.45"/>
<text text-anchor="middle" x="81" y="-198.73" font-family="Times New Roman,serif" font-size="14.00">volatility</text>
<text text-anchor="middle" x="81" y="-183.73" font-family="Times New Roman,serif" font-size="14.00">~</text>
<text text-anchor="middle" x="81" y="-168.73" font-family="Times New Roman,serif" font-size="14.00">RandomWalk</text>
</g>
<!-- sigma_vol&#45;&gt;volatility -->
<g id="edge1" class="edge">
<title>sigma_vol&#45;&gt;volatility</title>
<path fill="none" stroke="black" d="M81,-260.8C81,-252.63 81,-243.85 81,-235.32"/>
<polygon fill="black" stroke="black" points="84.5,-235.1 81,-225.1 77.5,-235.1 84.5,-235.1"/>
</g>
<!-- y -->
<g id="node2" class="node">
<title>y</title>
<ellipse fill="lightgrey" stroke="black" cx="81" cy="-76.48" rx="41.94" ry="37.45"/>
<text text-anchor="middle" x="81" y="-87.78" font-family="Times New Roman,serif" font-size="14.00">y</text>
<text text-anchor="middle" x="81" y="-72.78" font-family="Times New Roman,serif" font-size="14.00">~</text>
<text text-anchor="middle" x="81" y="-57.78" font-family="Times New Roman,serif" font-size="14.00">Normal</text>
</g>
<!-- volatility&#45;&gt;y -->
<g id="edge2" class="edge">
<title>volatility&#45;&gt;y</title>
<path fill="none" stroke="black" d="M81,-149.85C81,-141.67 81,-132.89 81,-124.37"/>
<polygon fill="black" stroke="black" points="84.5,-124.15 81,-114.15 77.5,-124.15 84.5,-124.15"/>
</g>
</g>
</svg>