<?xml version="1.0" encoding="UTF-8" standalone="no"?>
<!DOCTYPE svg PUBLIC "-//W3C//DTD SVG 1.1//EN"
 "http://www.w3.org/Graphics/SVG/1.1/DTD/svg11.dtd">
<!-- Generated by graphviz version 2.50.0 (0)
 -->
<!-- Pages: 1 -->
<svg width="603pt" height="360pt"
 viewBox="0.00 0.00 602.65 359.88" xmlns="http://www.w3.org/2000/svg" xmlns:xlink="http://www.w3.org/1999/xlink">
<g id="graph0" class="graph" transform="scale(1 1) rotate(0) translate(4 355.88)">
<polygon fill="white" stroke="transparent" points="-4,4 -4,-355.88 598.65,-355.88 598.65,4 -4,4"/>
<g id="clust1" class="cluster">
<title>clusterfactor (14)</title>
<path fill="none" stroke="black" d="M245.96,-129.95C245.96,-129.95 455.96,-129.95 455.96,-129.95 461.96,-129.95 467.96,-135.95 467.96,-141.95 467.96,-141.95 467.96,-331.88 467.96,-331.88 467.96,-337.88 461.96,-343.88 455.96,-343.88 455.96,-343.88 245.96,-343.88 245.96,-343.88 239.96,-343.88 233.96,-337.88 233.96,-331.88 233.96,-331.88 233.96,-141.95 233.96,-141.95 233.96,-135.95 239.96,-129.95 245.96,-129.95"/>
<text text-anchor="middle" x="430.96" y="-137.75" font-family="Times New Roman,serif" font-size="14.00">factor (14)</text>
</g>
<g id="clust2" class="cluster">
<title>cluster653 x 1</title>
<path fill="none" stroke="black" d="M121.96,-8C121.96,-8 213.96,-8 213.96,-8 219.96,-8 225.96,-14 225.96,-20 225.96,-20 225.96,-109.95 225.96,-109.95 225.96,-115.95 219.96,-121.95 213.96,-121.95 213.96,-121.95 121.96,-121.95 121.96,-121.95 115.96,-121.95 109.96,-115.95 109.96,-109.95 109.96,-109.95 109.96,-20 109.96,-20 109.96,-14 115.96,-8 121.96,-8"/>
<text text-anchor="middle" x="196.96" y="-15.8" font-family="Times New Roman,serif" font-size="14.00">653 x 1</text>
</g>
<!-- Intercept -->
<g id="node1" class="node">
<title>Intercept</title>
<ellipse fill="none" stroke="black" cx="45.96" cy="-187.45" rx="45.92" ry="37.45"/>
<text text-anchor="middle" x="45.96" y="-198.75" font-family="Times New Roman,serif" font-size="14.00">Intercept</text>
<text text-anchor="middle" x="45.96" y="-183.75" font-family="Times New Roman,serif" font-size="14.00">~</text>
<text text-anchor="middle" x="45.96" y="-168.75" font-family="Times New Roman,serif" font-size="14.00">Normal</text>
</g>
<!-- likelihood -->
<g id="node7" class="node">
<title>likelihood</title>
<ellipse fill="lightgrey" stroke="black" cx="167.96" cy="-76.48" rx="50.41" ry="37.45"/>
<text text-anchor="middle" x="167.96" y="-87.78" font-family="Times New Roman,serif" font-size="14.00">likelihood</text>
<text text-anchor="middle" x="167.96" y="-72.78" font-family="Times New Roman,serif" font-size="14.00">~</text>
<text text-anchor="middle" x="167.96" y="-57.78" font-family="Times New Roman,serif" font-size="14.00">Normal</text>
</g>
<!-- Intercept&#45;&gt;likelihood -->
<g id="edge6" class="edge">
<title>Intercept&#45;&gt;likelihood</title>
<path fill="none" stroke="black" d="M73.22,-156.96C81.85,-148.03 91.59,-138.37 100.96,-129.95 108.47,-123.22 116.73,-116.34 124.82,-109.88"/>
<polygon fill="black" stroke="black" points="127.12,-112.52 132.81,-103.58 122.79,-107.02 127.12,-112.52"/>
</g>
<!-- sigma_obs -->
<g id="node2" class="node">
<title>sigma_obs</title>
<ellipse fill="none" stroke="black" cx="167.96" cy="-187.45" rx="57.97" ry="37.45"/>
<text text-anchor="middle" x="167.96" y="-198.75" font-family="Times New Roman,serif" font-size="14.00">sigma_obs</text>
<text text-anchor="middle" x="167.96" y="-183.75" font-family="Times New Roman,serif" font-size="14.00">~</text>
<text text-anchor="middle" x="167.96" y="-168.75" font-family="Times New Roman,serif" font-size="14.00">HalfCauchy</text>
</g>
<!-- sigma_obs&#45;&gt;likelihood -->
<g id="edge4" class="edge">
<title>sigma_obs&#45;&gt;likelihood</title>
<path fill="none" stroke="black" d="M167.96,-149.86C167.96,-141.69 167.96,-132.9 167.96,-124.38"/>
<polygon fill="black" stroke="black" points="171.46,-124.16 167.96,-114.16 164.46,-124.16 171.46,-124.16"/>
</g>
<!-- tau -->
<g id="node3" class="node">
<title>tau</title>
<ellipse fill="none" stroke="black" cx="535.96" cy="-298.41" rx="58.88" ry="37.45"/>
<text text-anchor="middle" x="535.96" y="-309.71" font-family="Times New Roman,serif" font-size="14.00">tau</text>
<text text-anchor="middle" x="535.96" y="-294.71" font-family="Times New Roman,serif" font-size="14.00">~</text>
<text text-anchor="middle" x="535.96" y="-279.71" font-family="Times New Roman,serif" font-size="14.00">HalfNormal</text>
</g>
<!-- Coefficients -->
<g id="node4" class="node">
<title>Coefficients</title>
<polygon fill="none" stroke="black" points="402.46,-213.95 311.46,-213.95 311.46,-160.95 402.46,-160.95 402.46,-213.95"/>
<text text-anchor="middle" x="356.96" y="-198.75" font-family="Times New Roman,serif" font-size="14.00">Coefficients</text>
<text text-anchor="middle" x="356.96" y="-183.75" font-family="Times New Roman,serif" font-size="14.00">~</text>
<text text-anchor="middle" x="356.96" y="-168.75" font-family="Times New Roman,serif" font-size="14.00">Deterministic</text>
</g>
<!-- tau&#45;&gt;Coefficients -->
<g id="edge1" class="edge">
<title>tau&#45;&gt;Coefficients</title>
<path fill="none" stroke="black" d="M493.99,-271.86C468.17,-256.14 434.9,-235.89 407.61,-219.28"/>
<polygon fill="black" stroke="black" points="409.34,-216.24 398.98,-214.03 405.7,-222.22 409.34,-216.24"/>
</g>
<!-- Coefficients&#45;&gt;likelihood -->
<g id="edge5" class="edge">
<title>Coefficients&#45;&gt;likelihood</title>
<path fill="none" stroke="black" d="M312.65,-160.9C283.68,-144.2 245.84,-122.38 216.13,-105.25"/>
<polygon fill="black" stroke="black" points="217.6,-102.06 207.18,-100.09 214.1,-108.12 217.6,-102.06"/>
</g>
<!-- z -->
<g id="node5" class="node">
<title>z</title>
<ellipse fill="none" stroke="black" cx="417.96" cy="-298.41" rx="41.94" ry="37.45"/>
<text text-anchor="middle" x="417.96" y="-309.71" font-family="Times New Roman,serif" font-size="14.00">z</text>
<text text-anchor="middle" x="417.96" y="-294.71" font-family="Times New Roman,serif" font-size="14.00">~</text>
<text text-anchor="middle" x="417.96" y="-279.71" font-family="Times New Roman,serif" font-size="14.00">Normal</text>
</g>
<!-- z&#45;&gt;Coefficients -->
<g id="edge2" class="edge">
<title>z&#45;&gt;Coefficients</title>
<path fill="none" stroke="black" d="M399.66,-264.72C392.3,-251.58 383.81,-236.41 376.35,-223.08"/>
<polygon fill="black" stroke="black" points="379.32,-221.21 371.38,-214.2 373.21,-224.63 379.32,-221.21"/>
</g>
<!-- lambda -->
<g id="node6" class="node">
<title>lambda</title>
<ellipse fill="none" stroke="black" cx="299.96" cy="-298.41" rx="57.97" ry="37.45"/>
<text text-anchor="middle" x="299.96" y="-309.71" font-family="Times New Roman,serif" font-size="14.00">lambda</text>
<text text-anchor="middle" x="299.96" y="-294.71" font-family="Times New Roman,serif" font-size="14.00">~</text>
<text text-anchor="middle" x="299.96" y="-279.71" font-family="Times New Roman,serif" font-size="14.00">HalfCauchy</text>
</g>
<!-- lambda&#45;&gt;Coefficients -->
<g id="edge3" class="edge">
<title>lambda&#45;&gt;Coefficients</title>
<path fill="none" stroke="black" d="M318.15,-262.63C324.7,-250.13 332.08,-236.02 338.63,-223.49"/>
<polygon fill="black" stroke="black" points="341.92,-224.75 343.45,-214.27 335.72,-221.51 341.92,-224.75"/>
</g>
</g>
</svg>