<?xml version="1.0" encoding="UTF-8" standalone="no"?>
<!DOCTYPE svg PUBLIC "-//W3C//DTD SVG 1.1//EN"
 "http://www.w3.org/Graphics/SVG/1.1/DTD/svg11.dtd">
<!-- Generated by graphviz version 2.50.0 (0)
 -->
<!-- Pages: 1 -->
<svg width="753pt" height="363pt"
 viewBox="0.00 0.00 753.00 362.88" xmlns="http://www.w3.org/2000/svg" xmlns:xlink="http://www.w3.org/1999/xlink">
<g id="graph0" class="graph" transform="scale(1 1) rotate(0) translate(4 358.88)">
<polygon fill="white" stroke="transparent" points="-4,4 -4,-358.88 749,-358.88 749,4 -4,4"/>
<g id="clust1" class="cluster">
<title>clusterobs_id (499)</title>
<path fill="none" stroke="black" d="M20,-129.95C20,-129.95 102,-129.95 102,-129.95 108,-129.95 114,-135.95 114,-141.95 114,-141.95 114,-209.95 114,-209.95 114,-215.95 108,-221.95 102,-221.95 102,-221.95 20,-221.95 20,-221.95 14,-221.95 8,-215.95 8,-209.95 8,-209.95 8,-141.95 8,-141.95 8,-135.95 14,-129.95 20,-129.95"/>
<text text-anchor="middle" x="71" y="-137.75" font-family="Times New Roman,serif" font-size="14.00">obs_id (499)</text>
</g>
<g id="clust4" class="cluster">
<title>cluster752 x 499</title>
<path fill="none" stroke="black" d="M196,-8C196,-8 288,-8 288,-8 294,-8 300,-14 300,-20 300,-20 300,-109.95 300,-109.95 300,-115.95 294,-121.95 288,-121.95 288,-121.95 196,-121.95 196,-121.95 190,-121.95 184,-115.95 184,-109.95 184,-109.95 184,-20 184,-20 184,-14 190,-8 196,-8"/>
<text text-anchor="middle" x="264.5" y="-15.8" font-family="Times New Roman,serif" font-size="14.00">752 x 499</text>
</g>
<g id="clust2" class="cluster">
<title>cluster11</title>
<path fill="none" stroke="black" d="M548,-232.93C548,-232.93 725,-232.93 725,-232.93 731,-232.93 737,-238.93 737,-244.93 737,-244.93 737,-334.88 737,-334.88 737,-340.88 731,-346.88 725,-346.88 725,-346.88 548,-346.88 548,-346.88 542,-346.88 536,-340.88 536,-334.88 536,-334.88 536,-244.93 536,-244.93 536,-238.93 542,-232.93 548,-232.93"/>
<text text-anchor="middle" x="722" y="-240.73" font-family="Times New Roman,serif" font-size="14.00">11</text>
</g>
<g id="clust3" class="cluster">
<title>clustersector (11)</title>
<path fill="none" stroke="black" d="M261,-129.95C261,-129.95 454,-129.95 454,-129.95 460,-129.95 466,-135.95 466,-141.95 466,-141.95 466,-209.95 466,-209.95 466,-215.95 460,-221.95 454,-221.95 454,-221.95 261,-221.95 261,-221.95 255,-221.95 249,-215.95 249,-209.95 249,-209.95 249,-141.95 249,-141.95 249,-135.95 255,-129.95 261,-129.95"/>
<text text-anchor="middle" x="428.5" y="-137.75" font-family="Times New Roman,serif" font-size="14.00">sector (11)</text>
</g>
<!-- sector_idx -->
<g id="node1" class="node">
<title>sector_idx</title>
<path fill="lightgrey" stroke="black" d="M94,-213.95C94,-213.95 28,-213.95 28,-213.95 22,-213.95 16,-207.95 16,-201.95 16,-201.95 16,-172.95 16,-172.95 16,-166.95 22,-160.95 28,-160.95 28,-160.95 94,-160.95 94,-160.95 100,-160.95 106,-166.95 106,-172.95 106,-172.95 106,-201.95 106,-201.95 106,-207.95 100,-213.95 94,-213.95"/>
<text text-anchor="middle" x="61" y="-198.75" font-family="Times New Roman,serif" font-size="14.00">sector_idx</text>
<text text-anchor="middle" x="61" y="-183.75" font-family="Times New Roman,serif" font-size="14.00">~</text>
<text text-anchor="middle" x="61" y="-168.75" font-family="Times New Roman,serif" font-size="14.00">ConstantData</text>
</g>
<!-- likelihood -->
<g id="node11" class="node">
<title>likelihood</title>
<ellipse fill="lightgrey" stroke="black" cx="242" cy="-76.48" rx="50.41" ry="37.45"/>
<text text-anchor="middle" x="242" y="-87.78" font-family="Times New Roman,serif" font-size="14.00">likelihood</text>
<text text-anchor="middle" x="242" y="-72.78" font-family="Times New Roman,serif" font-size="14.00">~</text>
<text text-anchor="middle" x="242" y="-57.78" font-family="Times New Roman,serif" font-size="14.00">Normal</text>
</g>
<!-- sector_idx&#45;&gt;likelihood -->
<g id="edge9" class="edge">
<title>sector_idx&#45;&gt;likelihood</title>
<path fill="none" stroke="black" d="M81.38,-160.79C90.77,-150.21 102.57,-138.46 115,-129.95 136.54,-115.22 162.85,-103.5 185.93,-94.9"/>
<polygon fill="black" stroke="black" points="187.39,-98.1 195.6,-91.41 185.01,-91.52 187.39,-98.1"/>
</g>
<!-- mu_beta -->
<g id="node2" class="node">
<title>mu_beta</title>
<ellipse fill="none" stroke="black" cx="89" cy="-301.41" rx="45.01" ry="37.45"/>
<text text-anchor="middle" x="89" y="-312.71" font-family="Times New Roman,serif" font-size="14.00">mu_beta</text>
<text text-anchor="middle" x="89" y="-297.71" font-family="Times New Roman,serif" font-size="14.00">~</text>
<text text-anchor="middle" x="89" y="-282.71" font-family="Times New Roman,serif" font-size="14.00">Normal</text>
</g>
<!-- beta -->
<g id="node9" class="node">
<title>beta</title>
<polygon fill="none" stroke="black" points="348.5,-213.95 257.5,-213.95 257.5,-160.95 348.5,-160.95 348.5,-213.95"/>
<text text-anchor="middle" x="303" y="-198.75" font-family="Times New Roman,serif" font-size="14.00">beta</text>
<text text-anchor="middle" x="303" y="-183.75" font-family="Times New Roman,serif" font-size="14.00">~</text>
<text text-anchor="middle" x="303" y="-168.75" font-family="Times New Roman,serif" font-size="14.00">Deterministic</text>
</g>
<!-- mu_beta&#45;&gt;beta -->
<g id="edge5" class="edge">
<title>mu_beta&#45;&gt;beta</title>
<path fill="none" stroke="black" d="M107.41,-267.12C116.38,-254.18 128.4,-240.63 143,-232.93 163.89,-221.9 226.69,-232.69 249,-224.93 253.32,-223.43 257.63,-221.49 261.82,-219.29"/>
<polygon fill="black" stroke="black" points="263.85,-222.16 270.75,-214.12 260.34,-216.1 263.85,-222.16"/>
</g>
<!-- sigma_alpha -->
<g id="node3" class="node">
<title>sigma_alpha</title>
<ellipse fill="none" stroke="black" cx="347" cy="-301.41" rx="60.62" ry="37.45"/>
<text text-anchor="middle" x="347" y="-312.71" font-family="Times New Roman,serif" font-size="14.00">sigma_alpha</text>
<text text-anchor="middle" x="347" y="-297.71" font-family="Times New Roman,serif" font-size="14.00">~</text>
<text text-anchor="middle" x="347" y="-282.71" font-family="Times New Roman,serif" font-size="14.00">HalfCauchy</text>
</g>
<!-- alpha -->
<g id="node10" class="node">
<title>alpha</title>
<polygon fill="none" stroke="black" points="457.5,-213.95 366.5,-213.95 366.5,-160.95 457.5,-160.95 457.5,-213.95"/>
<text text-anchor="middle" x="412" y="-198.75" font-family="Times New Roman,serif" font-size="14.00">alpha</text>
<text text-anchor="middle" x="412" y="-183.75" font-family="Times New Roman,serif" font-size="14.00">~</text>
<text text-anchor="middle" x="412" y="-168.75" font-family="Times New Roman,serif" font-size="14.00">Deterministic</text>
</g>
<!-- sigma_alpha&#45;&gt;alpha -->
<g id="edge1" class="edge">
<title>sigma_alpha&#45;&gt;alpha</title>
<path fill="none" stroke="black" d="M367.03,-265.9C374.99,-252.2 384.12,-236.47 392.07,-222.79"/>
<polygon fill="black" stroke="black" points="395.1,-224.54 397.09,-214.13 389.04,-221.02 395.1,-224.54"/>
</g>
<!-- sigma_beta -->
<g id="node4" class="node">
<title>sigma_beta</title>
<ellipse fill="none" stroke="black" cx="210" cy="-301.41" rx="57.97" ry="37.45"/>
<text text-anchor="middle" x="210" y="-312.71" font-family="Times New Roman,serif" font-size="14.00">sigma_beta</text>
<text text-anchor="middle" x="210" y="-297.71" font-family="Times New Roman,serif" font-size="14.00">~</text>
<text text-anchor="middle" x="210" y="-282.71" font-family="Times New Roman,serif" font-size="14.00">HalfCauchy</text>
</g>
<!-- sigma_beta&#45;&gt;beta -->
<g id="edge6" class="edge">
<title>sigma_beta&#45;&gt;beta</title>
<path fill="none" stroke="black" d="M236.9,-268.03C248.94,-253.53 263.13,-236.45 275.26,-221.84"/>
<polygon fill="black" stroke="black" points="278.07,-223.94 281.77,-214.01 272.69,-219.47 278.07,-223.94"/>
</g>
<!-- error -->
<g id="node5" class="node">
<title>error</title>
<ellipse fill="none" stroke="black" cx="182" cy="-187.45" rx="57.97" ry="37.45"/>
<text text-anchor="middle" x="182" y="-198.75" font-family="Times New Roman,serif" font-size="14.00">error</text>
<text text-anchor="middle" x="182" y="-183.75" font-family="Times New Roman,serif" font-size="14.00">~</text>
<text text-anchor="middle" x="182" y="-168.75" font-family="Times New Roman,serif" font-size="14.00">HalfCauchy</text>
</g>
<!-- error&#45;&gt;likelihood -->
<g id="edge8" class="edge">
<title>error&#45;&gt;likelihood</title>
<path fill="none" stroke="black" d="M200.98,-151.97C206.51,-141.94 212.61,-130.86 218.38,-120.38"/>
<polygon fill="black" stroke="black" points="221.59,-121.81 223.34,-111.36 215.46,-118.43 221.59,-121.81"/>
</g>
<!-- mu_alpha -->
<g id="node6" class="node">
<title>mu_alpha</title>
<ellipse fill="none" stroke="black" cx="476" cy="-301.41" rx="50.41" ry="37.45"/>
<text text-anchor="middle" x="476" y="-312.71" font-family="Times New Roman,serif" font-size="14.00">mu_alpha</text>
<text text-anchor="middle" x="476" y="-297.71" font-family="Times New Roman,serif" font-size="14.00">~</text>
<text text-anchor="middle" x="476" y="-282.71" font-family="Times New Roman,serif" font-size="14.00">Normal</text>
</g>
<!-- mu_alpha&#45;&gt;alpha -->
<g id="edge3" class="edge">
<title>mu_alpha&#45;&gt;alpha</title>
<path fill="none" stroke="black" d="M456.62,-266.51C448.72,-252.68 439.59,-236.71 431.65,-222.83"/>
<polygon fill="black" stroke="black" points="434.63,-221 426.63,-214.05 428.56,-224.47 434.63,-221"/>
</g>
<!-- z_beta -->
<g id="node7" class="node">
<title>z_beta</title>
<ellipse fill="none" stroke="black" cx="586" cy="-301.41" rx="41.94" ry="37.45"/>
<text text-anchor="middle" x="586" y="-312.71" font-family="Times New Roman,serif" font-size="14.00">z_beta</text>
<text text-anchor="middle" x="586" y="-297.71" font-family="Times New Roman,serif" font-size="14.00">~</text>
<text text-anchor="middle" x="586" y="-282.71" font-family="Times New Roman,serif" font-size="14.00">Normal</text>
</g>
<!-- z_beta&#45;&gt;beta -->
<g id="edge4" class="edge">
<title>z_beta&#45;&gt;beta</title>
<path fill="none" stroke="black" d="M569.1,-266.94C560.72,-253.97 549.29,-240.45 535,-232.93 500.16,-214.6 395.43,-237.14 358,-224.93 353.41,-223.43 348.84,-221.44 344.4,-219.15"/>
<polygon fill="black" stroke="black" points="345.96,-216.01 335.54,-214.12 342.5,-222.1 345.96,-216.01"/>
</g>
<!-- z_alpha -->
<g id="node8" class="node">
<title>z_alpha</title>
<ellipse fill="none" stroke="black" cx="687" cy="-301.41" rx="41.94" ry="37.45"/>
<text text-anchor="middle" x="687" y="-312.71" font-family="Times New Roman,serif" font-size="14.00">z_alpha</text>
<text text-anchor="middle" x="687" y="-297.71" font-family="Times New Roman,serif" font-size="14.00">~</text>
<text text-anchor="middle" x="687" y="-282.71" font-family="Times New Roman,serif" font-size="14.00">Normal</text>
</g>
<!-- z_alpha&#45;&gt;alpha -->
<g id="edge2" class="edge">
<title>z_alpha&#45;&gt;alpha</title>
<path fill="none" stroke="black" d="M669.53,-267.27C661.29,-254.67 650.31,-241.35 637,-232.93 585.9,-200.6 516.25,-190.98 468.04,-188.5"/>
<polygon fill="black" stroke="black" points="467.93,-184.99 457.79,-188.06 467.63,-191.98 467.93,-184.99"/>
</g>
<!-- beta&#45;&gt;likelihood -->
<g id="edge7" class="edge">
<title>beta&#45;&gt;likelihood</title>
<path fill="none" stroke="black" d="M288.7,-160.9C281.94,-148.83 273.68,-134.08 266,-120.36"/>
<polygon fill="black" stroke="black" points="269,-118.55 261.06,-111.53 262.89,-121.97 269,-118.55"/>
</g>
<!-- alpha&#45;&gt;likelihood -->
<g id="edge10" class="edge">
<title>alpha&#45;&gt;likelihood</title>
<path fill="none" stroke="black" d="M391.23,-160.7C381.86,-150.23 370.18,-138.58 358,-129.95 339.32,-116.72 316.76,-105.6 296.52,-97.05"/>
<polygon fill="black" stroke="black" points="297.69,-93.75 287.11,-93.19 295.03,-100.22 297.69,-93.75"/>
</g>
</g>
</svg>