<?xml version="1.0" encoding="UTF-8" standalone="no"?>
<!DOCTYPE svg PUBLIC "-//W3C//DTD SVG 1.1//EN"
 "http://www.w3.org/Graphics/SVG/1.1/DTD/svg11.dtd">
<!-- Generated by graphviz version 2.50.0 (0)
 -->
<!-- Pages: 1 -->
<svg width="502pt" height="466pt"
 viewBox="0.00 0.00 501.97 465.81" xmlns="http://www.w3.org/2000/svg" xmlns:xlink="http://www.w3.org/1999/xlink">
<g id="graph0" class="graph" transform="scale(1 1) rotate(0) translate(4 461.81)">
<polygon fill="white" stroke="transparent" points="-4,4 -4,-461.81 497.97,-461.81 497.97,4 -4,4"/>
<g id="clust1" class="cluster">
<title>clusterfactor (14)</title>
<path fill="none" stroke="black" d="M135.98,-129.95C135.98,-129.95 245.98,-129.95 245.98,-129.95 251.98,-129.95 257.98,-135.95 257.98,-141.95 257.98,-141.95 257.98,-342.86 257.98,-342.86 257.98,-348.86 251.98,-354.86 245.98,-354.86 245.98,-354.86 135.98,-354.86 135.98,-354.86 129.98,-354.86 123.98,-348.86 123.98,-342.86 123.98,-342.86 123.98,-141.95 123.98,-141.95 123.98,-135.95 129.98,-129.95 135.98,-129.95"/>
<text text-anchor="middle" x="220.98" y="-137.75" font-family="Times New Roman,serif" font-size="14.00">factor (14)</text>
</g>
<g id="clust2" class="cluster">
<title>cluster653 x 1</title>
<path fill="none" stroke="black" d="M267.98,-8C267.98,-8 359.98,-8 359.98,-8 365.98,-8 371.98,-14 371.98,-20 371.98,-20 371.98,-109.95 371.98,-109.95 371.98,-115.95 365.98,-121.95 359.98,-121.95 359.98,-121.95 267.98,-121.95 267.98,-121.95 261.98,-121.95 255.98,-115.95 255.98,-109.95 255.98,-109.95 255.98,-20 255.98,-20 255.98,-14 261.98,-8 267.98,-8"/>
<text text-anchor="middle" x="342.98" y="-15.8" font-family="Times New Roman,serif" font-size="14.00">653 x 1</text>
</g>
<!-- sd_feature -->
<g id="node1" class="node">
<title>sd_feature</title>
<ellipse fill="none" stroke="black" cx="57.98" cy="-309.38" rx="57.97" ry="37.45"/>
<text text-anchor="middle" x="57.98" y="-320.68" font-family="Times New Roman,serif" font-size="14.00">sd_feature</text>
<text text-anchor="middle" x="57.98" y="-305.68" font-family="Times New Roman,serif" font-size="14.00">~</text>
<text text-anchor="middle" x="57.98" y="-290.68" font-family="Times New Roman,serif" font-size="14.00">HalfCauchy</text>
</g>
<!-- Coefficients -->
<g id="node5" class="node">
<title>Coefficients</title>
<ellipse fill="none" stroke="black" cx="190.98" cy="-198.43" rx="58.88" ry="37.45"/>
<text text-anchor="middle" x="190.98" y="-209.73" font-family="Times New Roman,serif" font-size="14.00">Coefficients</text>
<text text-anchor="middle" x="190.98" y="-194.73" font-family="Times New Roman,serif" font-size="14.00">~</text>
<text text-anchor="middle" x="190.98" y="-179.73" font-family="Times New Roman,serif" font-size="14.00">Normal</text>
</g>
<!-- sd_feature&#45;&gt;Coefficients -->
<g id="edge3" class="edge">
<title>sd_feature&#45;&gt;Coefficients</title>
<path fill="none" stroke="black" d="M93.28,-279.47C109.96,-265.8 130.03,-249.36 147.63,-234.94"/>
<polygon fill="black" stroke="black" points="150.01,-237.52 155.53,-228.48 145.57,-232.11 150.01,-237.52"/>
</g>
<!-- pi -->
<g id="node2" class="node">
<title>pi</title>
<ellipse fill="none" stroke="black" cx="190.98" cy="-420.34" rx="28.98" ry="37.45"/>
<text text-anchor="middle" x="190.98" y="-431.64" font-family="Times New Roman,serif" font-size="14.00">pi</text>
<text text-anchor="middle" x="190.98" y="-416.64" font-family="Times New Roman,serif" font-size="14.00">~</text>
<text text-anchor="middle" x="190.98" y="-401.64" font-family="Times New Roman,serif" font-size="14.00">Beta</text>
</g>
<!-- gamma -->
<g id="node6" class="node">
<title>gamma</title>
<ellipse fill="none" stroke="black" cx="190.98" cy="-309.38" rx="48.17" ry="37.45"/>
<text text-anchor="middle" x="190.98" y="-320.68" font-family="Times New Roman,serif" font-size="14.00">gamma</text>
<text text-anchor="middle" x="190.98" y="-305.68" font-family="Times New Roman,serif" font-size="14.00">~</text>
<text text-anchor="middle" x="190.98" y="-290.68" font-family="Times New Roman,serif" font-size="14.00">Bernoulli</text>
</g>
<!-- pi&#45;&gt;gamma -->
<g id="edge1" class="edge">
<title>pi&#45;&gt;gamma</title>
<path fill="none" stroke="black" d="M190.98,-382.75C190.98,-374.58 190.98,-365.8 190.98,-357.27"/>
<polygon fill="black" stroke="black" points="194.48,-357.06 190.98,-347.06 187.48,-357.06 194.48,-357.06"/>
</g>
<!-- Intercept -->
<g id="node3" class="node">
<title>Intercept</title>
<ellipse fill="none" stroke="black" cx="313.98" cy="-198.43" rx="45.92" ry="37.45"/>
<text text-anchor="middle" x="313.98" y="-209.73" font-family="Times New Roman,serif" font-size="14.00">Intercept</text>
<text text-anchor="middle" x="313.98" y="-194.73" font-family="Times New Roman,serif" font-size="14.00">~</text>
<text text-anchor="middle" x="313.98" y="-179.73" font-family="Times New Roman,serif" font-size="14.00">Normal</text>
</g>
<!-- likelihood -->
<g id="node7" class="node">
<title>likelihood</title>
<ellipse fill="lightgrey" stroke="black" cx="313.98" cy="-76.48" rx="50.41" ry="37.45"/>
<text text-anchor="middle" x="313.98" y="-87.78" font-family="Times New Roman,serif" font-size="14.00">likelihood</text>
<text text-anchor="middle" x="313.98" y="-72.78" font-family="Times New Roman,serif" font-size="14.00">~</text>
<text text-anchor="middle" x="313.98" y="-57.78" font-family="Times New Roman,serif" font-size="14.00">Normal</text>
</g>
<!-- Intercept&#45;&gt;likelihood -->
<g id="edge5" class="edge">
<title>Intercept&#45;&gt;likelihood</title>
<path fill="none" stroke="black" d="M313.98,-160.79C313.98,-149.38 313.98,-136.65 313.98,-124.63"/>
<polygon fill="black" stroke="black" points="317.48,-124.31 313.98,-114.31 310.48,-124.31 317.48,-124.31"/>
</g>
<!-- sigma_obs -->
<g id="node4" class="node">
<title>sigma_obs</title>
<ellipse fill="none" stroke="black" cx="435.98" cy="-198.43" rx="57.97" ry="37.45"/>
<text text-anchor="middle" x="435.98" y="-209.73" font-family="Times New Roman,serif" font-size="14.00">sigma_obs</text>
<text text-anchor="middle" x="435.98" y="-194.73" font-family="Times New Roman,serif" font-size="14.00">~</text>
<text text-anchor="middle" x="435.98" y="-179.73" font-family="Times New Roman,serif" font-size="14.00">HalfCauchy</text>
</g>
<!-- sigma_obs&#45;&gt;likelihood -->
<g id="edge6" class="edge">
<title>sigma_obs&#45;&gt;likelihood</title>
<path fill="none" stroke="black" d="M405.47,-166.35C394.09,-154.85 381.01,-141.74 368.98,-129.95 363.6,-124.68 357.89,-119.15 352.26,-113.74"/>
<polygon fill="black" stroke="black" points="354.31,-110.86 344.67,-106.48 349.47,-115.92 354.31,-110.86"/>
</g>
<!-- Coefficients&#45;&gt;likelihood -->
<g id="edge4" class="edge">
<title>Coefficients&#45;&gt;likelihood</title>
<path fill="none" stroke="black" d="M222,-166.4C233.56,-154.9 246.82,-141.78 258.98,-129.95 264.38,-124.7 270.1,-119.18 275.74,-113.78"/>
<polygon fill="black" stroke="black" points="278.53,-115.96 283.33,-106.52 273.69,-110.9 278.53,-115.96"/>
</g>
<!-- gamma&#45;&gt;Coefficients -->
<g id="edge2" class="edge">
<title>gamma&#45;&gt;Coefficients</title>
<path fill="none" stroke="black" d="M190.98,-271.8C190.98,-263.63 190.98,-254.85 190.98,-246.32"/>
<polygon fill="black" stroke="black" points="194.48,-246.1 190.98,-236.1 187.48,-246.1 194.48,-246.1"/>
</g>
</g>
</svg>