<?xml version="1.0" encoding="UTF-8" standalone="no"?>
<!DOCTYPE svg PUBLIC "-//W3C//DTD SVG 1.1//EN"
 "http://www.w3.org/Graphics/SVG/1.1/DTD/svg11.dtd">
<!-- Generated by graphviz version 2.50.0 (0)
 -->
<!-- Pages: 1 -->
<svg width="386pt" height="466pt"
 viewBox="0.00 0.00 385.98 465.81" xmlns="http://www.w3.org/2000/svg" xmlns:xlink="http://www.w3.org/1999/xlink">
<g id="graph0" class="graph" transform="scale(1 1) rotate(0) translate(4 461.81)">
<polygon fill="white" stroke="transparent" points="-4,4 -4,-461.81 381.98,-461.81 381.98,4 -4,4"/>
<g id="clust1" class="cluster">
<title>clusterfactor (14)</title>
<path fill="none" stroke="black" d="M20,-129.95C20,-129.95 130,-129.95 130,-129.95 136,-129.95 142,-135.95 142,-141.95 142,-141.95 142,-342.86 142,-342.86 142,-348.86 136,-354.86 130,-354.86 130,-354.86 20,-354.86 20,-354.86 14,-354.86 8,-348.86 8,-342.86 8,-342.86 8,-141.95 8,-141.95 8,-135.95 14,-129.95 20,-129.95"/>
<text text-anchor="middle" x="105" y="-137.75" font-family="Times New Roman,serif" font-size="14.00">factor (14)</text>
</g>
<g id="clust2" class="cluster">
<title>cluster653 x 1</title>
<path fill="none" stroke="black" d="M152,-8C152,-8 244,-8 244,-8 250,-8 256,-14 256,-20 256,-20 256,-109.95 256,-109.95 256,-115.95 250,-121.95 244,-121.95 244,-121.95 152,-121.95 152,-121.95 146,-121.95 140,-115.95 140,-109.95 140,-109.95 140,-20 140,-20 140,-14 146,-8 152,-8"/>
<text text-anchor="middle" x="227" y="-15.8" font-family="Times New Roman,serif" font-size="14.00">653 x 1</text>
</g>
<!-- pi -->
<g id="node1" class="node">
<title>pi</title>
<ellipse fill="none" stroke="black" cx="75" cy="-420.34" rx="28.98" ry="37.45"/>
<text text-anchor="middle" x="75" y="-431.64" font-family="Times New Roman,serif" font-size="14.00">pi</text>
<text text-anchor="middle" x="75" y="-416.64" font-family="Times New Roman,serif" font-size="14.00">~</text>
<text text-anchor="middle" x="75" y="-401.64" font-family="Times New Roman,serif" font-size="14.00">Beta</text>
</g>
<!-- gamma -->
<g id="node6" class="node">
<title>gamma</title>
<ellipse fill="none" stroke="black" cx="75" cy="-309.38" rx="48.17" ry="37.45"/>
<text text-anchor="middle" x="75" y="-320.68" font-family="Times New Roman,serif" font-size="14.00">gamma</text>
<text text-anchor="middle" x="75" y="-305.68" font-family="Times New Roman,serif" font-size="14.00">~</text>
<text text-anchor="middle" x="75" y="-290.68" font-family="Times New Roman,serif" font-size="14.00">Bernoulli</text>
</g>
<!-- pi&#45;&gt;gamma -->
<g id="edge1" class="edge">
<title>pi&#45;&gt;gamma</title>
<path fill="none" stroke="black" d="M75,-382.75C75,-374.58 75,-365.8 75,-357.27"/>
<polygon fill="black" stroke="black" points="78.5,-357.06 75,-347.06 71.5,-357.06 78.5,-357.06"/>
</g>
<!-- Intercept -->
<g id="node2" class="node">
<title>Intercept</title>
<ellipse fill="none" stroke="black" cx="198" cy="-198.43" rx="45.92" ry="37.45"/>
<text text-anchor="middle" x="198" y="-209.73" font-family="Times New Roman,serif" font-size="14.00">Intercept</text>
<text text-anchor="middle" x="198" y="-194.73" font-family="Times New Roman,serif" font-size="14.00">~</text>
<text text-anchor="middle" x="198" y="-179.73" font-family="Times New Roman,serif" font-size="14.00">Normal</text>
</g>
<!-- likelihood -->
<g id="node7" class="node">
<title>likelihood</title>
<ellipse fill="lightgrey" stroke="black" cx="198" cy="-76.48" rx="50.41" ry="37.45"/>
<text text-anchor="middle" x="198" y="-87.78" font-family="Times New Roman,serif" font-size="14.00">likelihood</text>
<text text-anchor="middle" x="198" y="-72.78" font-family="Times New Roman,serif" font-size="14.00">~</text>
<text text-anchor="middle" x="198" y="-57.78" font-family="Times New Roman,serif" font-size="14.00">Normal</text>
</g>
<!-- Intercept&#45;&gt;likelihood -->
<g id="edge6" class="edge">
<title>Intercept&#45;&gt;likelihood</title>
<path fill="none" stroke="black" d="M198,-160.79C198,-149.38 198,-136.65 198,-124.63"/>
<polygon fill="black" stroke="black" points="201.5,-124.31 198,-114.31 194.5,-124.31 201.5,-124.31"/>
</g>
<!-- sigma_obs -->
<g id="node3" class="node">
<title>sigma_obs</title>
<ellipse fill="none" stroke="black" cx="320" cy="-198.43" rx="57.97" ry="37.45"/>
<text text-anchor="middle" x="320" y="-209.73" font-family="Times New Roman,serif" font-size="14.00">sigma_obs</text>
<text text-anchor="middle" x="320" y="-194.73" font-family="Times New Roman,serif" font-size="14.00">~</text>
<text text-anchor="middle" x="320" y="-179.73" font-family="Times New Roman,serif" font-size="14.00">HalfCauchy</text>
</g>
<!-- sigma_obs&#45;&gt;likelihood -->
<g id="edge4" class="edge">
<title>sigma_obs&#45;&gt;likelihood</title>
<path fill="none" stroke="black" d="M289.49,-166.35C278.1,-154.85 265.02,-141.74 253,-129.95 247.62,-124.68 241.91,-119.15 236.28,-113.74"/>
<polygon fill="black" stroke="black" points="238.33,-110.86 228.69,-106.48 233.49,-115.92 238.33,-110.86"/>
</g>
<!-- sd_feature -->
<g id="node4" class="node">
<title>sd_feature</title>
<ellipse fill="none" stroke="black" cx="208" cy="-309.38" rx="57.97" ry="37.45"/>
<text text-anchor="middle" x="208" y="-320.68" font-family="Times New Roman,serif" font-size="14.00">sd_feature</text>
<text text-anchor="middle" x="208" y="-305.68" font-family="Times New Roman,serif" font-size="14.00">~</text>
<text text-anchor="middle" x="208" y="-290.68" font-family="Times New Roman,serif" font-size="14.00">HalfCauchy</text>
</g>
<!-- Coefficients -->
<g id="node5" class="node">
<title>Coefficients</title>
<ellipse fill="none" stroke="black" cx="75" cy="-198.43" rx="58.88" ry="37.45"/>
<text text-anchor="middle" x="75" y="-209.73" font-family="Times New Roman,serif" font-size="14.00">Coefficients</text>
<text text-anchor="middle" x="75" y="-194.73" font-family="Times New Roman,serif" font-size="14.00">~</text>
<text text-anchor="middle" x="75" y="-179.73" font-family="Times New Roman,serif" font-size="14.00">Normal</text>
</g>
<!-- sd_feature&#45;&gt;Coefficients -->
<g id="edge3" class="edge">
<title>sd_feature&#45;&gt;Coefficients</title>
<path fill="none" stroke="black" d="M172.71,-279.47C156.02,-265.8 135.95,-249.36 118.35,-234.94"/>
<polygon fill="black" stroke="black" points="120.41,-232.11 110.46,-228.48 115.98,-237.52 120.41,-232.11"/>
</g>
<!-- Coefficients&#45;&gt;likelihood -->
<g id="edge5" class="edge">
<title>Coefficients&#45;&gt;likelihood</title>
<path fill="none" stroke="black" d="M106.02,-166.4C117.58,-154.9 130.84,-141.78 143,-129.95 148.4,-124.7 154.12,-119.18 159.76,-113.78"/>
<polygon fill="black" stroke="black" points="162.54,-115.96 167.35,-106.52 157.71,-110.9 162.54,-115.96"/>
</g>
<!-- gamma&#45;&gt;Coefficients -->
<g id="edge2" class="edge">
<title>gamma&#45;&gt;Coefficients</title>
<path fill="none" stroke="black" d="M75,-271.8C75,-263.63 75,-254.85 75,-246.32"/>
<polygon fill="black" stroke="black" points="78.5,-246.1 75,-236.1 71.5,-246.1 78.5,-246.1"/>
</g>
</g>
</svg>