<?xml version="1.0" encoding="UTF-8" standalone="no"?>
<!DOCTYPE svg PUBLIC "-//W3C//DTD SVG 1.1//EN"
 "http://www.w3.org/Graphics/SVG/1.1/DTD/svg11.dtd">
<!-- Generated by graphviz version 2.50.0 (0)
 -->
<!-- Pages: 1 -->
<svg width="612pt" height="344pt"
 viewBox="0.00 0.00 612.05 343.86" xmlns="http://www.w3.org/2000/svg" xmlns:xlink="http://www.w3.org/1999/xlink">
<g id="graph0" class="graph" transform="scale(1 1) rotate(0) translate(4 339.86)">
<polygon fill="white" stroke="transparent" points="-4,4 -4,-339.86 608.05,-339.86 608.05,4 -4,4"/>
<g id="clust1" class="cluster">
<title>cluster1337</title>
<path fill="none" stroke="black" d="M169.54,-8C169.54,-8 291.54,-8 291.54,-8 297.54,-8 303.54,-14 303.54,-20 303.54,-20 303.54,-220.91 303.54,-220.91 303.54,-226.91 297.54,-232.91 291.54,-232.91 291.54,-232.91 169.54,-232.91 169.54,-232.91 163.54,-232.91 157.54,-226.91 157.54,-220.91 157.54,-220.91 157.54,-20 157.54,-20 157.54,-14 163.54,-8 169.54,-8"/>
<text text-anchor="middle" x="281.54" y="-15.8" font-family="Times New Roman,serif" font-size="14.00">1337</text>
</g>
<!-- WTI coefficient -->
<g id="node1" class="node">
<title>WTI coefficient</title>
<ellipse fill="none" stroke="black" cx="73.54" cy="-187.43" rx="73.58" ry="37.45"/>
<text text-anchor="middle" x="73.54" y="-198.73" font-family="Times New Roman,serif" font-size="14.00">WTI coefficient</text>
<text text-anchor="middle" x="73.54" y="-183.73" font-family="Times New Roman,serif" font-size="14.00">~</text>
<text text-anchor="middle" x="73.54" y="-168.73" font-family="Times New Roman,serif" font-size="14.00">Normal</text>
</g>
<!-- likelihood -->
<g id="node6" class="node">
<title>likelihood</title>
<ellipse fill="lightgrey" stroke="black" cx="237.54" cy="-76.48" rx="50.41" ry="37.45"/>
<text text-anchor="middle" x="237.54" y="-87.78" font-family="Times New Roman,serif" font-size="14.00">likelihood</text>
<text text-anchor="middle" x="237.54" y="-72.78" font-family="Times New Roman,serif" font-size="14.00">~</text>
<text text-anchor="middle" x="237.54" y="-57.78" font-family="Times New Roman,serif" font-size="14.00">Normal</text>
</g>
<!-- WTI coefficient&#45;&gt;likelihood -->
<g id="edge2" class="edge">
<title>WTI coefficient&#45;&gt;likelihood</title>
<path fill="none" stroke="black" d="M117.49,-157.23C140.64,-141.85 169,-123.01 192.33,-107.51"/>
<polygon fill="black" stroke="black" points="194.29,-110.41 200.69,-101.96 190.42,-104.58 194.29,-110.41"/>
</g>
<!-- step size -->
<g id="node2" class="node">
<title>step size</title>
<ellipse fill="none" stroke="black" cx="230.54" cy="-298.38" rx="57.97" ry="37.45"/>
<text text-anchor="middle" x="230.54" y="-309.68" font-family="Times New Roman,serif" font-size="14.00">step size</text>
<text text-anchor="middle" x="230.54" y="-294.68" font-family="Times New Roman,serif" font-size="14.00">~</text>
<text text-anchor="middle" x="230.54" y="-279.68" font-family="Times New Roman,serif" font-size="14.00">HalfCauchy</text>
</g>
<!-- volatility -->
<g id="node5" class="node">
<title>volatility</title>
<ellipse fill="none" stroke="black" cx="230.54" cy="-187.43" rx="65.11" ry="37.45"/>
<text text-anchor="middle" x="230.54" y="-198.73" font-family="Times New Roman,serif" font-size="14.00">volatility</text>
<text text-anchor="middle" x="230.54" y="-183.73" font-family="Times New Roman,serif" font-size="14.00">~</text>
<text text-anchor="middle" x="230.54" y="-168.73" font-family="Times New Roman,serif" font-size="14.00">RandomWalk</text>
</g>
<!-- step size&#45;&gt;volatility -->
<g id="edge1" class="edge">
<title>step size&#45;&gt;volatility</title>
<path fill="none" stroke="black" d="M230.54,-260.8C230.54,-252.63 230.54,-243.85 230.54,-235.32"/>
<polygon fill="black" stroke="black" points="234.04,-235.1 230.54,-225.1 227.04,-235.1 234.04,-235.1"/>
</g>
<!-- Intercept -->
<g id="node3" class="node">
<title>Intercept</title>
<ellipse fill="none" stroke="black" cx="359.54" cy="-187.43" rx="45.92" ry="37.45"/>
<text text-anchor="middle" x="359.54" y="-198.73" font-family="Times New Roman,serif" font-size="14.00">Intercept</text>
<text text-anchor="middle" x="359.54" y="-183.73" font-family="Times New Roman,serif" font-size="14.00">~</text>
<text text-anchor="middle" x="359.54" y="-168.73" font-family="Times New Roman,serif" font-size="14.00">Normal</text>
</g>
<!-- Intercept&#45;&gt;likelihood -->
<g id="edge3" class="edge">
<title>Intercept&#45;&gt;likelihood</title>
<path fill="none" stroke="black" d="M329.07,-159.22C313.28,-145.12 293.81,-127.73 276.89,-112.62"/>
<polygon fill="black" stroke="black" points="279.11,-109.91 269.32,-105.86 274.45,-115.13 279.11,-109.91"/>
</g>
<!-- S&amp;P 500 coefficient -->
<g id="node4" class="node">
<title>S&amp;P 500 coefficient</title>
<ellipse fill="none" stroke="black" cx="513.54" cy="-187.43" rx="90.52" ry="37.45"/>
<text text-anchor="middle" x="513.54" y="-198.73" font-family="Times New Roman,serif" font-size="14.00">S&amp;P 500 coefficient</text>
<text text-anchor="middle" x="513.54" y="-183.73" font-family="Times New Roman,serif" font-size="14.00">~</text>
<text text-anchor="middle" x="513.54" y="-168.73" font-family="Times New Roman,serif" font-size="14.00">Normal</text>
</g>
<!-- S&amp;P 500 coefficient&#45;&gt;likelihood -->
<g id="edge5" class="edge">
<title>S&amp;P 500 coefficient&#45;&gt;likelihood</title>
<path fill="none" stroke="black" d="M449.18,-161.02C401.14,-142.06 336.28,-116.45 291.07,-98.61"/>
<polygon fill="black" stroke="black" points="292.32,-95.34 281.73,-94.92 289.75,-101.85 292.32,-95.34"/>
</g>
<!-- volatility&#45;&gt;likelihood -->
<g id="edge4" class="edge">
<title>volatility&#45;&gt;likelihood</title>
<path fill="none" stroke="black" d="M232.89,-149.85C233.41,-141.67 233.98,-132.89 234.53,-124.37"/>
<polygon fill="black" stroke="black" points="238.03,-124.35 235.18,-114.15 231.05,-123.9 238.03,-124.35"/>
</g>
</g>
</svg>