<?xml version="1.0" encoding="UTF-8" standalone="no"?>
<!DOCTYPE svg PUBLIC "-//W3C//DTD SVG 1.1//EN"
 "http://www.w3.org/Graphics/SVG/1.1/DTD/svg11.dtd">
<!-- Generated by graphviz version 2.50.0 (0)
 -->
<!-- Pages: 1 -->
<svg width="386pt" height="260pt"
 viewBox="0.00 0.00 385.96 259.91" xmlns="http://www.w3.org/2000/svg" xmlns:xlink="http://www.w3.org/1999/xlink">
<g id="graph0" class="graph" transform="scale(1 1) rotate(0) translate(4 255.91)">
<polygon fill="white" stroke="transparent" points="-4,4 -4,-255.91 381.96,-255.91 381.96,4 -4,4"/>
<g id="clust1" class="cluster">
<title>clusterfactor (14)</title>
<path fill="none" stroke="black" d="M247.96,-129.95C247.96,-129.95 357.96,-129.95 357.96,-129.95 363.96,-129.95 369.96,-135.95 369.96,-141.95 369.96,-141.95 369.96,-231.91 369.96,-231.91 369.96,-237.91 363.96,-243.91 357.96,-243.91 357.96,-243.91 247.96,-243.91 247.96,-243.91 241.96,-243.91 235.96,-237.91 235.96,-231.91 235.96,-231.91 235.96,-141.95 235.96,-141.95 235.96,-135.95 241.96,-129.95 247.96,-129.95"/>
<text text-anchor="middle" x="332.96" y="-137.75" font-family="Times New Roman,serif" font-size="14.00">factor (14)</text>
</g>
<g id="clust2" class="cluster">
<title>cluster653 x 1</title>
<path fill="none" stroke="black" d="M121.96,-8C121.96,-8 213.96,-8 213.96,-8 219.96,-8 225.96,-14 225.96,-20 225.96,-20 225.96,-109.95 225.96,-109.95 225.96,-115.95 219.96,-121.95 213.96,-121.95 213.96,-121.95 121.96,-121.95 121.96,-121.95 115.96,-121.95 109.96,-115.95 109.96,-109.95 109.96,-109.95 109.96,-20 109.96,-20 109.96,-14 115.96,-8 121.96,-8"/>
<text text-anchor="middle" x="196.96" y="-15.8" font-family="Times New Roman,serif" font-size="14.00">653 x 1</text>
</g>
<!-- Intercept -->
<g id="node1" class="node">
<title>Intercept</title>
<ellipse fill="none" stroke="black" cx="45.96" cy="-198.43" rx="45.92" ry="37.45"/>
<text text-anchor="middle" x="45.96" y="-209.73" font-family="Times New Roman,serif" font-size="14.00">Intercept</text>
<text text-anchor="middle" x="45.96" y="-194.73" font-family="Times New Roman,serif" font-size="14.00">~</text>
<text text-anchor="middle" x="45.96" y="-179.73" font-family="Times New Roman,serif" font-size="14.00">Normal</text>
</g>
<!-- likelihood -->
<g id="node4" class="node">
<title>likelihood</title>
<ellipse fill="lightgrey" stroke="black" cx="167.96" cy="-76.48" rx="50.41" ry="37.45"/>
<text text-anchor="middle" x="167.96" y="-87.78" font-family="Times New Roman,serif" font-size="14.00">likelihood</text>
<text text-anchor="middle" x="167.96" y="-72.78" font-family="Times New Roman,serif" font-size="14.00">~</text>
<text text-anchor="middle" x="167.96" y="-57.78" font-family="Times New Roman,serif" font-size="14.00">Normal</text>
</g>
<!-- Intercept&#45;&gt;likelihood -->
<g id="edge1" class="edge">
<title>Intercept&#45;&gt;likelihood</title>
<path fill="none" stroke="black" d="M69.24,-165.95C78.56,-154.16 89.74,-140.96 100.96,-129.95 108.16,-122.89 116.28,-115.87 124.33,-109.36"/>
<polygon fill="black" stroke="black" points="126.64,-111.99 132.3,-103.04 122.29,-106.51 126.64,-111.99"/>
</g>
<!-- sigma -->
<g id="node2" class="node">
<title>sigma</title>
<ellipse fill="none" stroke="black" cx="167.96" cy="-198.43" rx="57.97" ry="37.45"/>
<text text-anchor="middle" x="167.96" y="-209.73" font-family="Times New Roman,serif" font-size="14.00">sigma</text>
<text text-anchor="middle" x="167.96" y="-194.73" font-family="Times New Roman,serif" font-size="14.00">~</text>
<text text-anchor="middle" x="167.96" y="-179.73" font-family="Times New Roman,serif" font-size="14.00">HalfCauchy</text>
</g>
<!-- sigma&#45;&gt;likelihood -->
<g id="edge2" class="edge">
<title>sigma&#45;&gt;likelihood</title>
<path fill="none" stroke="black" d="M167.96,-160.79C167.96,-149.38 167.96,-136.65 167.96,-124.63"/>
<polygon fill="black" stroke="black" points="171.46,-124.31 167.96,-114.31 164.46,-124.31 171.46,-124.31"/>
</g>
<!-- Coefficients -->
<g id="node3" class="node">
<title>Coefficients</title>
<ellipse fill="none" stroke="black" cx="302.96" cy="-198.43" rx="58.88" ry="37.45"/>
<text text-anchor="middle" x="302.96" y="-209.73" font-family="Times New Roman,serif" font-size="14.00">Coefficients</text>
<text text-anchor="middle" x="302.96" y="-194.73" font-family="Times New Roman,serif" font-size="14.00">~</text>
<text text-anchor="middle" x="302.96" y="-179.73" font-family="Times New Roman,serif" font-size="14.00">Normal</text>
</g>
<!-- Coefficients&#45;&gt;likelihood -->
<g id="edge3" class="edge">
<title>Coefficients&#45;&gt;likelihood</title>
<path fill="none" stroke="black" d="M272.89,-166.08C261.32,-154.42 247.81,-141.29 234.96,-129.95 227.4,-123.28 219.11,-116.44 211.01,-109.99"/>
<polygon fill="black" stroke="black" points="213.04,-107.13 203.02,-103.69 208.71,-112.63 213.04,-107.13"/>
</g>
</g>
</svg>