<?xml version="1.0" encoding="UTF-8" standalone="no"?>
<!DOCTYPE svg PUBLIC "-//W3C//DTD SVG 1.1//EN"
 "http://www.w3.org/Graphics/SVG/1.1/DTD/svg11.dtd">
<!-- Generated by graphviz version 2.50.0 (0)
 -->
<!-- Pages: 1 -->
<svg width="258pt" height="360pt"
 viewBox="0.00 0.00 257.98 359.86" xmlns="http://www.w3.org/2000/svg" xmlns:xlink="http://www.w3.org/1999/xlink">
<g id="graph0" class="graph" transform="scale(1 1) rotate(0) translate(4 355.86)">
<polygon fill="white" stroke="transparent" points="-4,4 -4,-355.86 253.98,-355.86 253.98,4 -4,4"/>
<g id="clust1" class="cluster">
<title>cluster91</title>
<path fill="none" stroke="black" d="M135.98,-8C135.98,-8 229.98,-8 229.98,-8 235.98,-8 241.98,-14 241.98,-20 241.98,-20 241.98,-331.86 241.98,-331.86 241.98,-337.86 235.98,-343.86 229.98,-343.86 229.98,-343.86 135.98,-343.86 135.98,-343.86 129.98,-343.86 123.98,-337.86 123.98,-331.86 123.98,-331.86 123.98,-20 123.98,-20 123.98,-14 129.98,-8 135.98,-8"/>
<text text-anchor="middle" x="226.98" y="-15.8" font-family="Times New Roman,serif" font-size="14.00">91</text>
</g>
<!-- f -->
<g id="node1" class="node">
<title>f</title>
<polygon fill="none" stroke="black" points="226.48,-213.93 135.48,-213.93 135.48,-160.93 226.48,-160.93 226.48,-213.93"/>
<text text-anchor="middle" x="180.98" y="-198.73" font-family="Times New Roman,serif" font-size="14.00">f</text>
<text text-anchor="middle" x="180.98" y="-183.73" font-family="Times New Roman,serif" font-size="14.00">~</text>
<text text-anchor="middle" x="180.98" y="-168.73" font-family="Times New Roman,serif" font-size="14.00">Deterministic</text>
</g>
<!-- y -->
<g id="node2" class="node">
<title>y</title>
<ellipse fill="lightgrey" stroke="black" cx="176.98" cy="-76.48" rx="41.94" ry="37.45"/>
<text text-anchor="middle" x="176.98" y="-87.78" font-family="Times New Roman,serif" font-size="14.00">y</text>
<text text-anchor="middle" x="176.98" y="-72.78" font-family="Times New Roman,serif" font-size="14.00">~</text>
<text text-anchor="middle" x="176.98" y="-57.78" font-family="Times New Roman,serif" font-size="14.00">Normal</text>
</g>
<!-- f&#45;&gt;y -->
<g id="edge2" class="edge">
<title>f&#45;&gt;y</title>
<path fill="none" stroke="black" d="M180.04,-160.89C179.64,-149.98 179.16,-136.89 178.7,-124.35"/>
<polygon fill="black" stroke="black" points="182.19,-123.87 178.32,-114 175.19,-124.12 182.19,-123.87"/>
</g>
<!-- f_rotated_ -->
<g id="node3" class="node">
<title>f_rotated_</title>
<ellipse fill="none" stroke="black" cx="182.98" cy="-298.38" rx="50.82" ry="37.45"/>
<text text-anchor="middle" x="182.98" y="-309.68" font-family="Times New Roman,serif" font-size="14.00">f_rotated_</text>
<text text-anchor="middle" x="182.98" y="-294.68" font-family="Times New Roman,serif" font-size="14.00">~</text>
<text text-anchor="middle" x="182.98" y="-279.68" font-family="Times New Roman,serif" font-size="14.00">Normal</text>
</g>
<!-- f_rotated_&#45;&gt;f -->
<g id="edge1" class="edge">
<title>f_rotated_&#45;&gt;f</title>
<path fill="none" stroke="black" d="M182.31,-260.8C182.1,-249.06 181.86,-236.08 181.64,-224.38"/>
<polygon fill="black" stroke="black" points="185.14,-224.02 181.45,-214.08 178.14,-224.14 185.14,-224.02"/>
</g>
<!-- sigma -->
<g id="node4" class="node">
<title>sigma</title>
<ellipse fill="none" stroke="black" cx="57.98" cy="-187.43" rx="57.97" ry="37.45"/>
<text text-anchor="middle" x="57.98" y="-198.73" font-family="Times New Roman,serif" font-size="14.00">sigma</text>
<text text-anchor="middle" x="57.98" y="-183.73" font-family="Times New Roman,serif" font-size="14.00">~</text>
<text text-anchor="middle" x="57.98" y="-168.73" font-family="Times New Roman,serif" font-size="14.00">HalfCauchy</text>
</g>
<!-- sigma&#45;&gt;y -->
<g id="edge3" class="edge">
<title>sigma&#45;&gt;y</title>
<path fill="none" stroke="black" d="M90.82,-156.37C106.3,-142.19 124.83,-125.22 140.74,-110.66"/>
<polygon fill="black" stroke="black" points="143.29,-113.07 148.31,-103.73 138.57,-107.9 143.29,-113.07"/>
</g>
</g>
</svg>