<?xml version="1.0" encoding="UTF-8" standalone="no"?>
<!DOCTYPE svg PUBLIC "-//W3C//DTD SVG 1.1//EN"
 "http://www.w3.org/Graphics/SVG/1.1/DTD/svg11.dtd">
<!-- Generated by graphviz version 2.50.0 (0)
 -->
<!-- Pages: 1 -->
<svg width="600pt" height="360pt"
 viewBox="0.00 0.00 599.65 359.88" xmlns="http://www.w3.org/2000/svg" xmlns:xlink="http://www.w3.org/1999/xlink">
<g id="graph0" class="graph" transform="scale(1 1) rotate(0) translate(4 355.88)">
<polygon fill="white" stroke="transparent" points="-4,4 -4,-355.88 595.65,-355.88 595.65,4 -4,4"/>
<g id="clust1" class="cluster">
<title>clusterfactor (14)</title>
<path fill="none" stroke="black" d="M111.96,-129.95C111.96,-129.95 321.96,-129.95 321.96,-129.95 327.96,-129.95 333.96,-135.95 333.96,-141.95 333.96,-141.95 333.96,-331.88 333.96,-331.88 333.96,-337.88 327.96,-343.88 321.96,-343.88 321.96,-343.88 111.96,-343.88 111.96,-343.88 105.96,-343.88 99.96,-337.88 99.96,-331.88 99.96,-331.88 99.96,-141.95 99.96,-141.95 99.96,-135.95 105.96,-129.95 111.96,-129.95"/>
<text text-anchor="middle" x="296.96" y="-137.75" font-family="Times New Roman,serif" font-size="14.00">factor (14)</text>
</g>
<g id="clust2" class="cluster">
<title>cluster653 x 1</title>
<path fill="none" stroke="black" d="M166.96,-8C166.96,-8 258.96,-8 258.96,-8 264.96,-8 270.96,-14 270.96,-20 270.96,-20 270.96,-109.95 270.96,-109.95 270.96,-115.95 264.96,-121.95 258.96,-121.95 258.96,-121.95 166.96,-121.95 166.96,-121.95 160.96,-121.95 154.96,-115.95 154.96,-109.95 154.96,-109.95 154.96,-20 154.96,-20 154.96,-14 160.96,-8 166.96,-8"/>
<text text-anchor="middle" x="241.96" y="-15.8" font-family="Times New Roman,serif" font-size="14.00">653 x 1</text>
</g>
<!-- Intercept -->
<g id="node1" class="node">
<title>Intercept</title>
<ellipse fill="none" stroke="black" cx="45.96" cy="-187.45" rx="45.92" ry="37.45"/>
<text text-anchor="middle" x="45.96" y="-198.75" font-family="Times New Roman,serif" font-size="14.00">Intercept</text>
<text text-anchor="middle" x="45.96" y="-183.75" font-family="Times New Roman,serif" font-size="14.00">~</text>
<text text-anchor="middle" x="45.96" y="-168.75" font-family="Times New Roman,serif" font-size="14.00">Normal</text>
</g>
<!-- likelihood -->
<g id="node7" class="node">
<title>likelihood</title>
<ellipse fill="lightgrey" stroke="black" cx="212.96" cy="-76.48" rx="50.41" ry="37.45"/>
<text text-anchor="middle" x="212.96" y="-87.78" font-family="Times New Roman,serif" font-size="14.00">likelihood</text>
<text text-anchor="middle" x="212.96" y="-72.78" font-family="Times New Roman,serif" font-size="14.00">~</text>
<text text-anchor="middle" x="212.96" y="-57.78" font-family="Times New Roman,serif" font-size="14.00">Normal</text>
</g>
<!-- Intercept&#45;&gt;likelihood -->
<g id="edge5" class="edge">
<title>Intercept&#45;&gt;likelihood</title>
<path fill="none" stroke="black" d="M69.53,-155.09C77.26,-146.19 86.36,-137.01 95.96,-129.95 114.62,-116.24 137.43,-105 157.94,-96.5"/>
<polygon fill="black" stroke="black" points="159.52,-99.64 167.49,-92.66 156.91,-93.14 159.52,-99.64"/>
</g>
<!-- c_sq -->
<g id="node2" class="node">
<title>c_sq</title>
<ellipse fill="none" stroke="black" cx="399.96" cy="-298.41" rx="55.72" ry="37.45"/>
<text text-anchor="middle" x="399.96" y="-309.71" font-family="Times New Roman,serif" font-size="14.00">c_sq</text>
<text text-anchor="middle" x="399.96" y="-294.71" font-family="Times New Roman,serif" font-size="14.00">~</text>
<text text-anchor="middle" x="399.96" y="-279.71" font-family="Times New Roman,serif" font-size="14.00">InvGamma</text>
</g>
<!-- Coefficients -->
<g id="node6" class="node">
<title>Coefficients</title>
<polygon fill="none" stroke="black" points="313.46,-213.95 222.46,-213.95 222.46,-160.95 313.46,-160.95 313.46,-213.95"/>
<text text-anchor="middle" x="267.96" y="-198.75" font-family="Times New Roman,serif" font-size="14.00">Coefficients</text>
<text text-anchor="middle" x="267.96" y="-183.75" font-family="Times New Roman,serif" font-size="14.00">~</text>
<text text-anchor="middle" x="267.96" y="-168.75" font-family="Times New Roman,serif" font-size="14.00">Deterministic</text>
</g>
<!-- c_sq&#45;&gt;Coefficients -->
<g id="edge2" class="edge">
<title>c_sq&#45;&gt;Coefficients</title>
<path fill="none" stroke="black" d="M365.28,-268.78C347.53,-254.13 325.84,-236.23 307.45,-221.04"/>
<polygon fill="black" stroke="black" points="309.19,-217.95 299.25,-214.28 304.74,-223.35 309.19,-217.95"/>
</g>
<!-- tau -->
<g id="node3" class="node">
<title>tau</title>
<ellipse fill="none" stroke="black" cx="532.96" cy="-298.41" rx="58.88" ry="37.45"/>
<text text-anchor="middle" x="532.96" y="-309.71" font-family="Times New Roman,serif" font-size="14.00">tau</text>
<text text-anchor="middle" x="532.96" y="-294.71" font-family="Times New Roman,serif" font-size="14.00">~</text>
<text text-anchor="middle" x="532.96" y="-279.71" font-family="Times New Roman,serif" font-size="14.00">HalfNormal</text>
</g>
<!-- tau&#45;&gt;Coefficients -->
<g id="edge4" class="edge">
<title>tau&#45;&gt;Coefficients</title>
<path fill="none" stroke="black" d="M489.52,-272.94C481.45,-268.74 473.03,-264.56 464.96,-260.93 418.13,-239.88 363.18,-220.05 323.23,-206.47"/>
<polygon fill="black" stroke="black" points="324.26,-203.12 313.67,-203.24 322.03,-209.76 324.26,-203.12"/>
</g>
<!-- lambda -->
<g id="node4" class="node">
<title>lambda</title>
<ellipse fill="none" stroke="black" cx="267.96" cy="-298.41" rx="57.97" ry="37.45"/>
<text text-anchor="middle" x="267.96" y="-309.71" font-family="Times New Roman,serif" font-size="14.00">lambda</text>
<text text-anchor="middle" x="267.96" y="-294.71" font-family="Times New Roman,serif" font-size="14.00">~</text>
<text text-anchor="middle" x="267.96" y="-279.71" font-family="Times New Roman,serif" font-size="14.00">HalfCauchy</text>
</g>
<!-- lambda&#45;&gt;Coefficients -->
<g id="edge1" class="edge">
<title>lambda&#45;&gt;Coefficients</title>
<path fill="none" stroke="black" d="M267.96,-260.82C267.96,-249.09 267.96,-236.1 267.96,-224.41"/>
<polygon fill="black" stroke="black" points="271.46,-224.11 267.96,-214.11 264.46,-224.11 271.46,-224.11"/>
</g>
<!-- z -->
<g id="node5" class="node">
<title>z</title>
<ellipse fill="none" stroke="black" cx="149.96" cy="-298.41" rx="41.94" ry="37.45"/>
<text text-anchor="middle" x="149.96" y="-309.71" font-family="Times New Roman,serif" font-size="14.00">z</text>
<text text-anchor="middle" x="149.96" y="-294.71" font-family="Times New Roman,serif" font-size="14.00">~</text>
<text text-anchor="middle" x="149.96" y="-279.71" font-family="Times New Roman,serif" font-size="14.00">Normal</text>
</g>
<!-- z&#45;&gt;Coefficients -->
<g id="edge3" class="edge">
<title>z&#45;&gt;Coefficients</title>
<path fill="none" stroke="black" d="M178.53,-271.03C194.73,-256.07 215.16,-237.21 232.4,-221.29"/>
<polygon fill="black" stroke="black" points="235.09,-223.56 240.07,-214.21 230.35,-218.42 235.09,-223.56"/>
</g>
<!-- Coefficients&#45;&gt;likelihood -->
<g id="edge6" class="edge">
<title>Coefficients&#45;&gt;likelihood</title>
<path fill="none" stroke="black" d="M255.07,-160.9C249.08,-149.04 241.8,-134.61 234.98,-121.1"/>
<polygon fill="black" stroke="black" points="237.99,-119.29 230.36,-111.94 231.74,-122.45 237.99,-119.29"/>
</g>
</g>
</svg>