<?xml version="1.0" encoding="UTF-8" standalone="no"?>
<!DOCTYPE svg PUBLIC "-//W3C//DTD SVG 1.1//EN"
 "http://www.w3.org/Graphics/SVG/1.1/DTD/svg11.dtd">
<!-- Generated by graphviz version 2.50.0 (0)
 -->
<!-- Pages: 1 -->
<svg width="491pt" height="360pt"
 viewBox="0.00 0.00 490.55 359.88" xmlns="http://www.w3.org/2000/svg" xmlns:xlink="http://www.w3.org/1999/xlink">
<g id="graph0" class="graph" transform="scale(1 1) rotate(0) translate(4 355.88)">
<polygon fill="white" stroke="transparent" points="-4,4 -4,-355.88 486.55,-355.88 486.55,4 -4,4"/>
<g id="clust1" class="cluster">
<title>clusterfactor (14)</title>
<path fill="none" stroke="black" d="M138.69,-129.95C138.69,-129.95 348.69,-129.95 348.69,-129.95 354.69,-129.95 360.69,-135.95 360.69,-141.95 360.69,-141.95 360.69,-331.88 360.69,-331.88 360.69,-337.88 354.69,-343.88 348.69,-343.88 348.69,-343.88 138.69,-343.88 138.69,-343.88 132.69,-343.88 126.69,-337.88 126.69,-331.88 126.69,-331.88 126.69,-141.95 126.69,-141.95 126.69,-135.95 132.69,-129.95 138.69,-129.95"/>
<text text-anchor="middle" x="323.69" y="-137.75" font-family="Times New Roman,serif" font-size="14.00">factor (14)</text>
</g>
<g id="clust2" class="cluster">
<title>cluster653 x 1</title>
<path fill="none" stroke="black" d="M252.69,-8C252.69,-8 344.69,-8 344.69,-8 350.69,-8 356.69,-14 356.69,-20 356.69,-20 356.69,-109.95 356.69,-109.95 356.69,-115.95 350.69,-121.95 344.69,-121.95 344.69,-121.95 252.69,-121.95 252.69,-121.95 246.69,-121.95 240.69,-115.95 240.69,-109.95 240.69,-109.95 240.69,-20 240.69,-20 240.69,-14 246.69,-8 252.69,-8"/>
<text text-anchor="middle" x="327.69" y="-15.8" font-family="Times New Roman,serif" font-size="14.00">653 x 1</text>
</g>
<!-- tau -->
<g id="node1" class="node">
<title>tau</title>
<ellipse fill="none" stroke="black" cx="58.69" cy="-298.41" rx="58.88" ry="37.45"/>
<text text-anchor="middle" x="58.69" y="-309.71" font-family="Times New Roman,serif" font-size="14.00">tau</text>
<text text-anchor="middle" x="58.69" y="-294.71" font-family="Times New Roman,serif" font-size="14.00">~</text>
<text text-anchor="middle" x="58.69" y="-279.71" font-family="Times New Roman,serif" font-size="14.00">HalfNormal</text>
</g>
<!-- Coefficients -->
<g id="node6" class="node">
<title>Coefficients</title>
<polygon fill="none" stroke="black" points="340.19,-213.95 249.19,-213.95 249.19,-160.95 340.19,-160.95 340.19,-213.95"/>
<text text-anchor="middle" x="294.69" y="-198.75" font-family="Times New Roman,serif" font-size="14.00">Coefficients</text>
<text text-anchor="middle" x="294.69" y="-183.75" font-family="Times New Roman,serif" font-size="14.00">~</text>
<text text-anchor="middle" x="294.69" y="-168.75" font-family="Times New Roman,serif" font-size="14.00">Deterministic</text>
</g>
<!-- tau&#45;&gt;Coefficients -->
<g id="edge1" class="edge">
<title>tau&#45;&gt;Coefficients</title>
<path fill="none" stroke="black" d="M101,-272.36C108.16,-268.39 115.58,-264.44 122.69,-260.93 161.07,-241.99 205.63,-223.3 239.78,-209.65"/>
<polygon fill="black" stroke="black" points="241.12,-212.88 249.12,-205.93 238.54,-206.37 241.12,-212.88"/>
</g>
<!-- Intercept -->
<g id="node2" class="node">
<title>Intercept</title>
<ellipse fill="none" stroke="black" cx="414.69" cy="-187.45" rx="45.92" ry="37.45"/>
<text text-anchor="middle" x="414.69" y="-198.75" font-family="Times New Roman,serif" font-size="14.00">Intercept</text>
<text text-anchor="middle" x="414.69" y="-183.75" font-family="Times New Roman,serif" font-size="14.00">~</text>
<text text-anchor="middle" x="414.69" y="-168.75" font-family="Times New Roman,serif" font-size="14.00">Normal</text>
</g>
<!-- likelihood -->
<g id="node7" class="node">
<title>likelihood</title>
<ellipse fill="lightgrey" stroke="black" cx="298.69" cy="-76.48" rx="50.41" ry="37.45"/>
<text text-anchor="middle" x="298.69" y="-87.78" font-family="Times New Roman,serif" font-size="14.00">likelihood</text>
<text text-anchor="middle" x="298.69" y="-72.78" font-family="Times New Roman,serif" font-size="14.00">~</text>
<text text-anchor="middle" x="298.69" y="-57.78" font-family="Times New Roman,serif" font-size="14.00">Normal</text>
</g>
<!-- Intercept&#45;&gt;likelihood -->
<g id="edge5" class="edge">
<title>Intercept&#45;&gt;likelihood</title>
<path fill="none" stroke="black" d="M389.41,-155.93C381.77,-147.25 373.15,-137.98 364.69,-129.95 357.67,-123.29 349.88,-116.58 342.18,-110.27"/>
<polygon fill="black" stroke="black" points="343.88,-107.16 333.9,-103.62 339.5,-112.61 343.88,-107.16"/>
</g>
<!-- c_sq -->
<g id="node3" class="node">
<title>c_sq</title>
<ellipse fill="none" stroke="black" cx="426.69" cy="-298.41" rx="55.72" ry="37.45"/>
<text text-anchor="middle" x="426.69" y="-309.71" font-family="Times New Roman,serif" font-size="14.00">c_sq</text>
<text text-anchor="middle" x="426.69" y="-294.71" font-family="Times New Roman,serif" font-size="14.00">~</text>
<text text-anchor="middle" x="426.69" y="-279.71" font-family="Times New Roman,serif" font-size="14.00">InvGamma</text>
</g>
<!-- c_sq&#45;&gt;Coefficients -->
<g id="edge4" class="edge">
<title>c_sq&#45;&gt;Coefficients</title>
<path fill="none" stroke="black" d="M392.01,-268.78C374.26,-254.13 352.57,-236.23 334.18,-221.04"/>
<polygon fill="black" stroke="black" points="335.92,-217.95 325.98,-214.28 331.47,-223.35 335.92,-217.95"/>
</g>
<!-- lambda -->
<g id="node4" class="node">
<title>lambda</title>
<ellipse fill="none" stroke="black" cx="294.69" cy="-298.41" rx="57.97" ry="37.45"/>
<text text-anchor="middle" x="294.69" y="-309.71" font-family="Times New Roman,serif" font-size="14.00">lambda</text>
<text text-anchor="middle" x="294.69" y="-294.71" font-family="Times New Roman,serif" font-size="14.00">~</text>
<text text-anchor="middle" x="294.69" y="-279.71" font-family="Times New Roman,serif" font-size="14.00">HalfCauchy</text>
</g>
<!-- lambda&#45;&gt;Coefficients -->
<g id="edge2" class="edge">
<title>lambda&#45;&gt;Coefficients</title>
<path fill="none" stroke="black" d="M294.69,-260.82C294.69,-249.09 294.69,-236.1 294.69,-224.41"/>
<polygon fill="black" stroke="black" points="298.19,-224.11 294.69,-214.11 291.19,-224.11 298.19,-224.11"/>
</g>
<!-- z -->
<g id="node5" class="node">
<title>z</title>
<ellipse fill="none" stroke="black" cx="176.69" cy="-298.41" rx="41.94" ry="37.45"/>
<text text-anchor="middle" x="176.69" y="-309.71" font-family="Times New Roman,serif" font-size="14.00">z</text>
<text text-anchor="middle" x="176.69" y="-294.71" font-family="Times New Roman,serif" font-size="14.00">~</text>
<text text-anchor="middle" x="176.69" y="-279.71" font-family="Times New Roman,serif" font-size="14.00">Normal</text>
</g>
<!-- z&#45;&gt;Coefficients -->
<g id="edge3" class="edge">
<title>z&#45;&gt;Coefficients</title>
<path fill="none" stroke="black" d="M205.25,-271.03C221.46,-256.07 241.89,-237.21 259.13,-221.29"/>
<polygon fill="black" stroke="black" points="261.82,-223.56 266.8,-214.21 257.07,-218.42 261.82,-223.56"/>
</g>
<!-- Coefficients&#45;&gt;likelihood -->
<g id="edge6" class="edge">
<title>Coefficients&#45;&gt;likelihood</title>
<path fill="none" stroke="black" d="M295.63,-160.9C296.03,-149.99 296.51,-136.9 296.97,-124.36"/>
<polygon fill="black" stroke="black" points="300.48,-124.13 297.35,-114.01 293.48,-123.87 300.48,-124.13"/>
</g>
</g>
</svg>