<?xml version="1.0" encoding="UTF-8" standalone="no"?>
<!DOCTYPE svg PUBLIC "-//W3C//DTD SVG 1.1//EN"
 "http://www.w3.org/Graphics/SVG/1.1/DTD/svg11.dtd">
<!-- Generated by graphviz version 2.50.0 (0)
 -->
<!-- Pages: 1 -->
<svg width="458pt" height="360pt"
 viewBox="0.00 0.00 458.07 359.86" xmlns="http://www.w3.org/2000/svg" xmlns:xlink="http://www.w3.org/1999/xlink">
<g id="graph0" class="graph" transform="scale(1 1) rotate(0) translate(4 355.86)">
<polygon fill="white" stroke="transparent" points="-4,4 -4,-355.86 454.07,-355.86 454.07,4 -4,4"/>
<g id="clust1" class="cluster">
<title>cluster91</title>
<path fill="none" stroke="black" d="M135.98,-8C135.98,-8 229.98,-8 229.98,-8 235.98,-8 241.98,-14 241.98,-20 241.98,-20 241.98,-331.86 241.98,-331.86 241.98,-337.86 235.98,-343.86 229.98,-343.86 229.98,-343.86 135.98,-343.86 135.98,-343.86 129.98,-343.86 123.98,-337.86 123.98,-331.86 123.98,-331.86 123.98,-20 123.98,-20 123.98,-14 129.98,-8 135.98,-8"/>
<text text-anchor="middle" x="226.98" y="-15.8" font-family="Times New Roman,serif" font-size="14.00">91</text>
</g>
<!-- sigma -->
<g id="node1" class="node">
<title>sigma</title>
<ellipse fill="none" stroke="black" cx="57.98" cy="-187.43" rx="57.97" ry="37.45"/>
<text text-anchor="middle" x="57.98" y="-198.73" font-family="Times New Roman,serif" font-size="14.00">sigma</text>
<text text-anchor="middle" x="57.98" y="-183.73" font-family="Times New Roman,serif" font-size="14.00">~</text>
<text text-anchor="middle" x="57.98" y="-168.73" font-family="Times New Roman,serif" font-size="14.00">HalfCauchy</text>
</g>
<!-- y -->
<g id="node5" class="node">
<title>y</title>
<ellipse fill="lightgrey" stroke="black" cx="187.98" cy="-76.48" rx="41.94" ry="37.45"/>
<text text-anchor="middle" x="187.98" y="-87.78" font-family="Times New Roman,serif" font-size="14.00">y</text>
<text text-anchor="middle" x="187.98" y="-72.78" font-family="Times New Roman,serif" font-size="14.00">~</text>
<text text-anchor="middle" x="187.98" y="-57.78" font-family="Times New Roman,serif" font-size="14.00">Normal</text>
</g>
<!-- sigma&#45;&gt;y -->
<g id="edge5" class="edge">
<title>sigma&#45;&gt;y</title>
<path fill="none" stroke="black" d="M92.82,-157.23C110.43,-142.47 131.83,-124.53 149.88,-109.41"/>
<polygon fill="black" stroke="black" points="152.49,-111.79 157.91,-102.68 148,-106.42 152.49,-111.79"/>
</g>
<!-- spread -->
<g id="node2" class="node">
<title>spread</title>
<ellipse fill="none" stroke="black" cx="292.98" cy="-187.43" rx="43.27" ry="37.45"/>
<text text-anchor="middle" x="292.98" y="-198.73" font-family="Times New Roman,serif" font-size="14.00">spread</text>
<text text-anchor="middle" x="292.98" y="-183.73" font-family="Times New Roman,serif" font-size="14.00">~</text>
<text text-anchor="middle" x="292.98" y="-168.73" font-family="Times New Roman,serif" font-size="14.00">Gamma</text>
</g>
<!-- spread&#45;&gt;y -->
<g id="edge2" class="edge">
<title>spread&#45;&gt;y</title>
<path fill="none" stroke="black" d="M265.67,-158.09C252.32,-144.24 236.12,-127.43 221.98,-112.75"/>
<polygon fill="black" stroke="black" points="224.26,-110.07 214.8,-105.3 219.22,-114.93 224.26,-110.07"/>
</g>
<!-- p -->
<g id="node3" class="node">
<title>p</title>
<ellipse fill="none" stroke="black" cx="401.98" cy="-187.43" rx="48.17" ry="37.45"/>
<text text-anchor="middle" x="401.98" y="-198.73" font-family="Times New Roman,serif" font-size="14.00">p</text>
<text text-anchor="middle" x="401.98" y="-183.73" font-family="Times New Roman,serif" font-size="14.00">~</text>
<text text-anchor="middle" x="401.98" y="-168.73" font-family="Times New Roman,serif" font-size="14.00">Binomial</text>
</g>
<!-- p&#45;&gt;y -->
<g id="edge4" class="edge">
<title>p&#45;&gt;y</title>
<path fill="none" stroke="black" d="M365.94,-162.32C359.08,-158.03 351.89,-153.73 344.98,-149.95 308.95,-130.23 266.58,-110.88 234.94,-97.14"/>
<polygon fill="black" stroke="black" points="236.05,-93.81 225.48,-93.07 233.28,-100.24 236.05,-93.81"/>
</g>
<!-- f -->
<g id="node4" class="node">
<title>f</title>
<polygon fill="none" stroke="black" points="229.48,-213.93 138.48,-213.93 138.48,-160.93 229.48,-160.93 229.48,-213.93"/>
<text text-anchor="middle" x="183.98" y="-198.73" font-family="Times New Roman,serif" font-size="14.00">f</text>
<text text-anchor="middle" x="183.98" y="-183.73" font-family="Times New Roman,serif" font-size="14.00">~</text>
<text text-anchor="middle" x="183.98" y="-168.73" font-family="Times New Roman,serif" font-size="14.00">Deterministic</text>
</g>
<!-- f&#45;&gt;y -->
<g id="edge3" class="edge">
<title>f&#45;&gt;y</title>
<path fill="none" stroke="black" d="M184.92,-160.89C185.32,-149.98 185.8,-136.89 186.26,-124.35"/>
<polygon fill="black" stroke="black" points="189.77,-124.12 186.64,-114 182.78,-123.87 189.77,-124.12"/>
</g>
<!-- f_rotated_ -->
<g id="node6" class="node">
<title>f_rotated_</title>
<ellipse fill="none" stroke="black" cx="182.98" cy="-298.38" rx="50.82" ry="37.45"/>
<text text-anchor="middle" x="182.98" y="-309.68" font-family="Times New Roman,serif" font-size="14.00">f_rotated_</text>
<text text-anchor="middle" x="182.98" y="-294.68" font-family="Times New Roman,serif" font-size="14.00">~</text>
<text text-anchor="middle" x="182.98" y="-279.68" font-family="Times New Roman,serif" font-size="14.00">Normal</text>
</g>
<!-- f_rotated_&#45;&gt;f -->
<g id="edge1" class="edge">
<title>f_rotated_&#45;&gt;f</title>
<path fill="none" stroke="black" d="M183.32,-260.8C183.43,-249.06 183.55,-236.08 183.65,-224.38"/>
<polygon fill="black" stroke="black" points="187.16,-224.11 183.75,-214.08 180.16,-224.05 187.16,-224.11"/>
</g>
</g>
</svg>